G04 Layer: BottomSolderMaskLayer*
G04 EasyEDA v5.9.41, Mon, 04 Feb 2019 09:10:30 GMT*
G04 f7da754788ad4d128d84d1fb51d08027*
G04 Gerber Generator version 0.2*
G04 Scale: 100 percent, Rotated: No, Reflected: No *
G04 Dimensions in millimeters *
G04 leading zeros omitted , absolute positions ,3 integer and 3 decimal *
%FSLAX33Y33*%
%MOMM*%
G90*
G71D02*

%ADD50R,1.363218X1.673098*%
%ADD54R,2.203196X1.703197*%
%ADD55R,1.673098X1.363218*%
%ADD56R,1.303198X1.203198*%
%ADD60C,1.727200*%
%ADD61R,2.203196X4.003192*%
%ADD62C,0.903199*%
%ADD63R,1.803400X2.004060*%
%ADD64R,0.601980X0.601980*%
%ADD65R,1.203198X1.303198*%

%LPD*%
G54D62*
G01X16258Y21185D02*
G01X16258Y19685D01*
G01X17528Y21185D02*
G01X17528Y19685D01*
G01X18798Y21185D02*
G01X18798Y19685D01*
G01X20068Y21185D02*
G01X20068Y19685D01*
G01X16258Y15140D02*
G01X16258Y13640D01*
G01X17528Y15140D02*
G01X17528Y13640D01*
G01X18798Y15140D02*
G01X18798Y13640D01*
G01X20068Y15140D02*
G01X20068Y13640D01*
G54D50*
G01X21656Y28503D03*
G01X23688Y28503D03*
G54D55*
G01X11455Y30002D03*
G01X11455Y27970D03*
G01X13728Y28425D03*
G01X13728Y26393D03*
G54D63*
G01X3314Y14202D03*
G01X6108Y14202D03*
G01X3439Y24601D03*
G01X6233Y24601D03*
G01X3444Y21819D03*
G01X6238Y21819D03*
G01X3317Y11405D03*
G01X6111Y11405D03*
G01X3314Y8487D03*
G01X6108Y8487D03*
G01X3317Y5690D03*
G01X6111Y5690D03*
G54D55*
G01X11572Y19532D03*
G01X11572Y17500D03*
G01X13858Y18135D03*
G01X13858Y16103D03*
G01X11569Y9121D03*
G01X11569Y7089D03*
G01X13731Y7594D03*
G01X13731Y5562D03*
G01X21359Y22600D03*
G01X21359Y24632D03*
G01X16957Y24599D03*
G01X16957Y22567D03*
G01X19159Y24599D03*
G01X19159Y22567D03*
G01X17958Y12100D03*
G01X17958Y10068D03*
G01X20160Y12098D03*
G01X20160Y10066D03*
G01X22357Y10101D03*
G01X22357Y12133D03*
G01X21856Y19001D03*
G01X21856Y16969D03*
G01X16055Y28402D03*
G01X16055Y30434D03*
G01X18257Y26499D03*
G01X18257Y28531D03*
G54D64*
G01X22053Y27915D03*
G01X22053Y26493D03*
G54D54*
G01X29455Y27701D03*
G01X29455Y30001D03*
G01X29455Y25401D03*
G54D61*
G01X35755Y27701D03*
G54D55*
G01X26357Y30001D03*
G01X26357Y27969D03*
G54D50*
G01X23957Y19301D03*
G01X25989Y19301D03*
G01X22258Y14401D03*
G01X24290Y14401D03*
G01X22255Y30600D03*
G01X24287Y30600D03*
G54D56*
G01X32057Y8500D03*
G01X32057Y7100D03*
G54D65*
G01X31657Y5201D03*
G01X33057Y5201D03*
G54D60*
G01X-3844Y12942D03*
G01X-3844Y7862D03*
G01X-3841Y24240D03*
G01X-3841Y19160D03*

%LPD*%
G36*
G01X55Y102D02*
G01X55Y3902D01*
G01X4256Y3902D01*
G01X4256Y2D01*
G01X55Y102D01*
G37*

%LPD*%
G36*
G01X55Y28102D02*
G01X55Y31302D01*
G01X4055Y31302D01*
G01X4056Y28102D01*
G01X55Y28102D01*
G37*

%LPD*%
G36*
G01X9455Y2402D02*
G01X5155Y2402D01*
G01X5155Y4102D01*
G01X9455Y4102D01*
G01X9455Y2402D01*
G37*

%LPD*%
G36*
G01X9455Y18302D02*
G01X5155Y18302D01*
G01X5155Y20002D01*
G01X9455Y20002D01*
G01X9455Y18302D01*
G37*
M00*
M02*
