G04 Layer: TopLayer*
G04 EasyEDA v5.9.41, Mon, 04 Feb 2019 09:10:30 GMT*
G04 f7da754788ad4d128d84d1fb51d08027*
G04 Gerber Generator version 0.2*
G04 Scale: 100 percent, Rotated: No, Reflected: No *
G04 Dimensions in millimeters *
G04 leading zeros omitted , absolute positions ,3 integer and 3 decimal *
%FSLAX33Y33*%
%MOMM*%
G90*
G71D02*

%ADD11C,0.249999*%
%ADD12C,0.499999*%
%ADD13C,0.399999*%
%ADD14C,0.350012*%
%ADD15C,0.299999*%
%ADD16C,0.599999*%
%ADD17C,0.999998*%
%ADD18C,0.250012*%
%ADD19C,0.050000*%
%ADD20C,0.700024*%
%ADD21C,0.619760*%
%ADD22R,1.600200X3.500120*%
%ADD23R,1.160018X1.469898*%
%ADD24R,0.250012X0.700024*%
%ADD25R,0.700024X0.250012*%
%ADD26R,4.399991X2.400046*%
%ADD27R,1.999996X1.499997*%
%ADD28R,1.469898X1.160018*%
%ADD29R,1.099998X0.999998*%
%ADD30R,1.300480X1.399540*%
%ADD31R,0.999998X0.999998*%
%ADD32R,1.493520X0.399999*%
%ADD33R,1.999996X3.799992*%
%ADD34C,1.524000*%

%LPD*%
G54D11*
G01X10068Y27802D02*
G01X10068Y29588D01*
G01X10005Y29651D01*
G01X8590Y27805D02*
G01X8590Y28600D01*
G01X8504Y28686D01*
G01X8250Y28940D01*
G01X8250Y29377D01*
G01X7973Y29651D01*
G01X11067Y27792D02*
G01X11564Y27792D01*
G01X11572Y27797D01*
G54D12*
G01X11572Y27797D02*
G01X13101Y27797D01*
G01X13728Y28425D01*
G54D11*
G01X10553Y27790D02*
G01X10553Y28298D01*
G01X11315Y28806D01*
G01X11315Y28806D01*
G01X11315Y28806D01*
G01X9573Y27800D02*
G01X9576Y27152D01*
G01X10533Y26334D01*
G01X11455Y30002D02*
G01X11455Y28945D01*
G01X11315Y28806D01*
G01X8608Y17383D02*
G01X8605Y18262D01*
G01X8356Y18491D01*
G01X8013Y19232D01*
G01X8013Y19232D01*
G01X10089Y17381D02*
G01X10089Y19189D01*
G01X10045Y19232D01*
G54D13*
G01X11084Y17371D02*
G01X11582Y17371D01*
G01X11587Y17376D01*
G54D12*
G01X11587Y17376D02*
G01X13093Y17376D01*
G01X13855Y18138D01*
G54D11*
G01X10571Y17376D02*
G01X10576Y18003D01*
G01X11564Y18501D01*
G01X11569Y19535D01*
G01X10089Y7094D02*
G01X10089Y8826D01*
G01X10048Y8864D01*
G01X8608Y7096D02*
G01X8608Y8018D01*
G01X8016Y8864D01*
G01X8016Y8864D01*
G01X8016Y8864D01*
G54D12*
G01X13728Y7597D02*
G01X13347Y7089D01*
G01X11696Y7089D01*
G01X11587Y7089D01*
G54D11*
G01X11587Y7089D02*
G01X11092Y7089D01*
G01X11084Y7084D01*
G01X10571Y7089D02*
G01X10571Y7487D01*
G01X11569Y8486D01*
G01X11569Y9118D01*
G01X11572Y9118D01*
G01X12276Y16672D02*
G01X14026Y16672D01*
G01X14856Y17503D01*
G01X21036Y17503D01*
G01X22354Y16202D01*
G01X12273Y16184D02*
G01X14620Y16184D01*
G01X15362Y17002D01*
G01X20556Y17002D01*
G01X21856Y15702D01*
G54D12*
G01X17518Y15140D02*
G01X16985Y15140D01*
G01X16726Y15400D01*
G54D14*
G01X17538Y19679D02*
G01X17556Y19679D01*
G01X17556Y19502D01*
G54D12*
G01X14965Y12296D02*
G01X16261Y12296D01*
G01X16556Y12001D01*
G01X16556Y11102D01*
G01X20366Y12296D02*
G01X19250Y12296D01*
G01X17955Y11003D01*
G01X17955Y10002D01*
G01X17958Y9999D01*
G01X20366Y22710D02*
G01X17947Y22710D01*
G01X16954Y23703D01*
G01X16954Y24599D01*
G01X16957Y24599D01*
G01X15255Y23601D02*
G01X15255Y22999D01*
G01X14965Y22710D01*
G54D11*
G01X12276Y6385D02*
G01X15138Y6385D01*
G01X15456Y6703D01*
G01X23454Y6703D01*
G01X25357Y6703D01*
G01X12273Y5897D02*
G01X16157Y5900D01*
G01X12255Y26606D02*
G01X23457Y26601D01*
G01X12258Y27091D02*
G01X14546Y27091D01*
G01X14856Y27401D01*
G01X23655Y27401D01*
G54D15*
G01X16256Y19662D02*
G01X15684Y19662D01*
G01X15524Y19502D01*
G01X15524Y19502D02*
G01X15524Y18435D01*
G01X15854Y18102D01*
G01X17754Y18102D01*
G01X17754Y18102D02*
G01X18826Y18102D01*
G01X19525Y18801D01*
G54D12*
G01X21557Y18801D02*
G01X22354Y19801D01*
G01X25357Y19801D01*
G01X26055Y19301D01*
G54D15*
G01X22354Y16202D02*
G01X25255Y16202D01*
G01X21856Y15702D02*
G01X24955Y15702D01*
G01X16726Y15400D02*
G01X16726Y16372D01*
G01X16855Y16502D01*
G01X19855Y16502D01*
G01X21255Y15102D01*
G54D12*
G01X27356Y17002D02*
G01X26388Y17002D01*
G01X25987Y17401D01*
G54D16*
G01X23955Y17401D02*
G01X23955Y19001D01*
G54D15*
G01X21655Y28502D02*
G01X23557Y28502D01*
G01X27256Y24803D01*
G54D16*
G01X29456Y30002D02*
G01X26954Y30002D01*
G01X26355Y29403D01*
G01X26355Y28003D01*
G01X26357Y28000D01*
G01X29456Y25402D02*
G01X29456Y23903D01*
G01X30056Y23301D01*
G01X31554Y23301D01*
G01X31658Y23200D01*
G01X31356Y26601D02*
G01X31356Y26601D01*
G01X31656Y26301D01*
G01X31656Y23202D01*
G01X31658Y23200D01*
G01X33955Y27701D02*
G01X35755Y27701D01*
G01X33955Y23202D02*
G01X33955Y27701D01*
G54D17*
G01X29456Y27701D02*
G01X33955Y27701D01*
G54D16*
G01X32423Y19103D02*
G01X32423Y16802D01*
G01X36352Y19304D02*
G01X34656Y19304D01*
G01X34455Y19103D01*
G01X36352Y19304D02*
G01X38153Y19304D01*
G01X38156Y19301D01*
G01X36352Y17904D02*
G01X38153Y17904D01*
G01X38156Y17901D01*
G01X38156Y19301D02*
G01X38156Y20502D01*
G01X37556Y21102D01*
G01X36324Y21102D01*
G01X36258Y21168D01*
G01X33957Y21168D02*
G01X31658Y21168D01*
G01X36258Y23200D02*
G01X33957Y23200D01*
G01X33957Y23200D01*
G54D15*
G01X27155Y24902D02*
G01X30355Y21701D01*
G01X30355Y16202D01*
G01X23755Y27402D02*
G01X29855Y21201D01*
G01X29855Y14701D01*
G01X29454Y14300D01*
G01X29357Y14300D01*
G01X23457Y26601D02*
G01X28956Y21102D01*
G01X28956Y16502D01*
G01X29156Y16301D01*
G01X26055Y19301D02*
G01X27955Y19301D01*
G01X28356Y18902D01*
G01X28356Y15801D01*
G01X28356Y15801D01*
G54D16*
G01X34455Y16802D02*
G01X35956Y16802D01*
G01X36256Y17101D01*
G01X36256Y17805D01*
G01X36352Y17904D01*
G01X32357Y15300D02*
G01X32357Y16736D01*
G01X32423Y16802D01*
G01X34556Y15300D02*
G01X34556Y16703D01*
G01X34455Y16802D01*
G54D13*
G01X28857Y8051D02*
G01X30104Y8051D01*
G01X30655Y8602D01*
G01X28857Y7401D02*
G01X30256Y7401D01*
G01X30655Y7002D01*
G54D15*
G01X30355Y16202D02*
G01X30655Y15902D01*
G01X30655Y13103D01*
G01X30856Y12903D01*
G01X34356Y12903D01*
G01X34856Y12402D01*
G01X34856Y10650D01*
G54D13*
G01X34856Y7401D02*
G01X33058Y7401D01*
G01X31958Y8498D01*
G01X31958Y9900D01*
G54D16*
G01X32156Y13703D02*
G01X32956Y13703D01*
G01X34556Y15300D01*
G54D15*
G01X34856Y6751D02*
G01X33604Y6751D01*
G01X33055Y6202D01*
G01X33055Y5201D01*
G01X34856Y8699D02*
G01X33657Y8699D01*
G01X33355Y9001D01*
G01X33355Y12001D01*
G01X33055Y12301D01*
G01X34856Y8049D02*
G01X33408Y8049D01*
G01X32756Y8702D01*
G01X32756Y11402D01*
G01X28854Y9352D02*
G01X26906Y9352D01*
G01X26256Y10002D01*
G01X26256Y16002D01*
G01X26055Y16202D01*
G01X25263Y16202D01*
G01X33055Y12301D02*
G01X30256Y12301D01*
G01X27655Y14902D01*
G01X32756Y11402D02*
G01X32456Y11701D01*
G01X29855Y11701D01*
G01X26957Y14599D01*
G01X26957Y15801D01*
G01X27655Y14902D02*
G01X27655Y16301D01*
G01X27356Y16601D01*
G01X27356Y17002D01*
G01X28854Y10002D02*
G01X27457Y10002D01*
G01X27058Y10401D01*
G01X27058Y12001D01*
G01X28854Y8699D02*
G01X26454Y8699D01*
G01X25956Y8201D01*
G01X25956Y7302D01*
G01X25357Y6703D01*
G01X24955Y15702D02*
G01X25156Y15702D01*
G01X25357Y15501D01*
G01X25357Y12801D01*
G54D12*
G01X24254Y7701D02*
G01X24254Y8501D01*
G01X25357Y9601D01*
G01X25357Y12801D01*
G54D15*
G01X34856Y10001D02*
G01X38454Y10001D01*
G01X38455Y10002D01*
G01X34856Y9351D02*
G01X37007Y9351D01*
G01X37655Y8702D01*
G01X38455Y8702D01*
G01X34856Y6101D02*
G01X35854Y6101D01*
G01X37155Y7402D01*
G01X38455Y7402D01*
G01X34856Y5450D02*
G01X36504Y5450D01*
G01X37155Y6102D01*
G01X38455Y6102D01*
G01X34856Y4800D02*
G01X38454Y4800D01*
G01X38455Y4802D01*
G01X28854Y6751D02*
G01X29806Y6751D01*
G01X33055Y3502D01*
G01X38455Y3502D01*
G01X28859Y5450D02*
G01X30107Y5450D01*
G01X33355Y2202D01*
G01X38455Y2202D01*
G01X28854Y4800D02*
G01X29657Y4800D01*
G01X33555Y902D01*
G01X38455Y902D01*
G01X28859Y6101D02*
G01X26354Y6101D01*
G01X25855Y5602D01*
G01X24321Y5602D01*
G01X24254Y5669D01*
G54D16*
G01X25758Y1400D02*
G01X26754Y1400D01*
G01X26955Y1602D01*
G01X28120Y1602D01*
G01X28122Y1600D01*
G54D15*
G01X28854Y10650D02*
G01X28854Y11101D01*
G01X29055Y11302D01*
G01X28854Y8050D02*
G01X27304Y8050D01*
G01X27055Y7802D01*
G54D18*
G01X9591Y17379D02*
G01X9591Y16806D01*
G01X9695Y16702D01*
G01X10483Y15914D01*
G01X10550Y15914D01*
G01X9591Y7092D02*
G01X9591Y6456D01*
G01X9655Y6392D01*
G01X10420Y5627D01*
G01X10550Y5627D01*
G54D22*
G01X14965Y12296D03*
G01X20366Y12296D03*
G01X14965Y22710D03*
G01X20366Y22710D03*
G54D23*
G01X10005Y29651D03*
G01X7973Y29651D03*
G54D24*
G01X7105Y21940D03*
G01X7608Y21944D03*
G01X8105Y21946D03*
G01X8589Y21940D03*
G01X9084Y21943D03*
G01X9572Y21936D03*
G01X10068Y21939D03*
G01X10552Y21932D03*
G01X11065Y21927D03*
G01X11571Y21932D03*
G01X7107Y27804D03*
G01X7610Y27809D03*
G01X8106Y27811D03*
G01X8590Y27805D03*
G01X9085Y27806D03*
G01X9573Y27801D03*
G01X10070Y27804D03*
G01X10553Y27797D03*
G01X11068Y27791D03*
G01X11571Y27797D03*
G54D25*
G01X12255Y26606D03*
G01X12257Y27092D03*
G01X12254Y25623D03*
G01X12255Y26109D03*
G01X12259Y24630D03*
G01X12260Y25116D03*
G01X12258Y23647D03*
G01X12259Y24135D03*
G01X12259Y22646D03*
G01X12260Y23134D03*
G01X6416Y26600D03*
G01X6418Y27086D03*
G01X6415Y25617D03*
G01X6416Y26103D03*
G01X6420Y24624D03*
G01X6421Y25110D03*
G01X6418Y23642D03*
G01X6421Y24127D03*
G01X6422Y22641D03*
G01X6422Y23126D03*
G54D26*
G01X9322Y23884D03*
G54D27*
G01X8135Y26334D03*
G01X10532Y26335D03*
G54D28*
G01X24254Y7701D03*
G01X24254Y5669D03*
G54D23*
G01X10045Y19232D03*
G01X8013Y19232D03*
G54D24*
G01X7123Y11518D03*
G01X7626Y11522D03*
G01X8123Y11525D03*
G01X8607Y11518D03*
G01X9103Y11521D03*
G01X9591Y11515D03*
G01X10086Y11517D03*
G01X10570Y11511D03*
G01X11083Y11506D03*
G01X11589Y11511D03*
G01X7124Y17382D03*
G01X7627Y17387D03*
G01X8124Y17390D03*
G01X8608Y17383D03*
G01X9104Y17385D03*
G01X9591Y17379D03*
G01X10087Y17382D03*
G01X10571Y17376D03*
G01X11086Y17369D03*
G01X11589Y17376D03*
G54D25*
G01X12273Y16184D03*
G01X12276Y16671D03*
G01X12272Y15201D03*
G01X12273Y15688D03*
G01X12277Y14208D03*
G01X12278Y14695D03*
G01X12276Y13225D03*
G01X12278Y13713D03*
G01X12279Y12225D03*
G01X12279Y12712D03*
G01X6434Y16178D03*
G01X6436Y16664D03*
G01X6432Y15195D03*
G01X6435Y15681D03*
G01X6437Y14202D03*
G01X6440Y14688D03*
G01X6436Y13220D03*
G01X6439Y13705D03*
G01X6440Y12219D03*
G01X6440Y12705D03*
G54D26*
G01X9339Y13463D03*
G54D27*
G01X8154Y15913D03*
G01X10550Y15914D03*
G54D23*
G01X10048Y8864D03*
G01X8016Y8864D03*
G54D24*
G01X7123Y1231D03*
G01X7626Y1235D03*
G01X8123Y1238D03*
G01X8607Y1231D03*
G01X9103Y1234D03*
G01X9591Y1228D03*
G01X10086Y1230D03*
G01X10570Y1224D03*
G01X11083Y1219D03*
G01X11589Y1224D03*
G01X7124Y7095D03*
G01X7627Y7100D03*
G01X8124Y7103D03*
G01X8608Y7096D03*
G01X9104Y7098D03*
G01X9591Y7092D03*
G01X10087Y7095D03*
G01X10571Y7089D03*
G01X11086Y7082D03*
G01X11589Y7089D03*
G54D25*
G01X12273Y5897D03*
G01X12276Y6384D03*
G01X12272Y4914D03*
G01X12273Y5401D03*
G01X12277Y3921D03*
G01X12278Y4408D03*
G01X12276Y2938D03*
G01X12278Y3426D03*
G01X12279Y1938D03*
G01X12279Y2425D03*
G01X6434Y5891D03*
G01X6436Y6377D03*
G01X6432Y4908D03*
G01X6435Y5394D03*
G01X6437Y3915D03*
G01X6440Y4401D03*
G01X6436Y2933D03*
G01X6439Y3418D03*
G01X6440Y1932D03*
G01X6440Y2418D03*
G54D26*
G01X9339Y3176D03*
G54D27*
G01X8154Y5626D03*
G01X10550Y5627D03*
G54D23*
G01X34455Y19103D03*
G01X32423Y19103D03*
G01X34455Y16802D03*
G01X32423Y16802D03*
G54D28*
G01X36258Y23200D03*
G01X36258Y21168D03*
G54D29*
G01X38156Y19302D03*
G01X38156Y17903D03*
G01X36352Y19302D03*
G01X36352Y17903D03*
G54D28*
G01X25758Y1400D03*
G01X25758Y3432D03*
G54D30*
G01X28122Y1600D03*
G01X30222Y1600D03*
G54D31*
G01X22237Y22710D03*
G01X22491Y12296D03*
G01X22237Y2009D03*
G01X1458Y29700D03*
G01X1656Y2103D03*
G54D23*
G01X18758Y15400D03*
G01X16726Y15400D03*
G54D32*
G01X34856Y7400D03*
G01X34856Y8049D03*
G01X34856Y8700D03*
G01X34856Y9351D03*
G01X28859Y5450D03*
G01X34856Y5450D03*
G01X34856Y6101D03*
G01X34856Y6751D03*
G01X28854Y10001D03*
G01X28854Y9351D03*
G01X28854Y8700D03*
G01X28854Y8050D03*
G01X28854Y7400D03*
G01X28854Y6751D03*
G01X34856Y10001D03*
G01X28859Y6101D03*
G01X34856Y4800D03*
G01X34856Y10650D03*
G01X28854Y10650D03*
G01X28854Y4800D03*
G54D23*
G01X21557Y18801D03*
G01X19525Y18801D03*
G01X17556Y19502D03*
G01X15524Y19502D03*
G54D33*
G01X35755Y27701D03*
G54D27*
G01X29455Y27701D03*
G01X29455Y25401D03*
G01X29455Y30001D03*
G54D28*
G01X33957Y23200D03*
G01X33957Y21168D03*
G01X31657Y23200D03*
G01X31657Y21168D03*
G54D23*
G01X23955Y17401D03*
G01X25987Y17401D03*
G54D31*
G01X38457Y900D03*
G01X38455Y3502D03*
G01X38457Y10000D03*
G01X38457Y7400D03*
G01X38457Y6100D03*
G01X38458Y11300D03*
G01X38455Y4802D03*
G01X38457Y8700D03*
G01X38457Y2200D03*
G54D19*
G75*
G01X413Y31321D02*
G03X38Y30941I0J-375D01*
G01*
G75*
G01X36Y28444D02*
G03X416Y28069I375J0D01*
G01*
G75*
G01X414Y3892D02*
G03X39Y3512I0J-375D01*
G01*
G75*
G01X36Y630D02*
G03X416Y255I375J0D01*
G01*

%LPD*%
G36*
G01X7757Y27050D02*
G01X9107Y27050D01*
G01X9105Y25592D01*
G01X7165Y25592D01*
G01X6625Y25592D01*
G01X6075Y25502D01*
G01X3822Y25504D01*
G01X1666Y25562D01*
G01X1663Y28171D01*
G01X7758Y28150D01*
G01X7757Y27050D01*
G37*

%LPD*%
G36*
G01X5045Y20752D02*
G01X5045Y24702D01*
G01X6757Y24700D01*
G01X6757Y22250D01*
G01X10657Y22250D01*
G01X10657Y20750D01*
G01X5045Y20752D01*
G37*

%LPD*%
G36*
G01X10957Y22800D02*
G01X11407Y24750D01*
G01X14858Y24750D01*
G01X15207Y24350D01*
G01X15207Y20750D01*
G01X10957Y20750D01*
G01X10957Y22800D01*
G37*

%LPD*%
G36*
G01X20459Y20678D02*
G01X20459Y24234D01*
G01X20459Y24996D01*
G01X24015Y24996D01*
G01X24015Y20678D01*
G01X20459Y20678D01*
G37*

%LPD*%
G36*
G01X1663Y4803D02*
G01X1663Y27028D01*
G01X4584Y27028D01*
G01X4584Y4803D01*
G01X1663Y4803D01*
G37*

%LPD*%
G36*
G01X393Y28044D02*
G01X6870Y28044D01*
G01X6870Y31346D01*
G01X1790Y31346D01*
G01X393Y31346D01*
G01X155Y31217D01*
G01X12Y30965D01*
G01X12Y28425D01*
G01X155Y28172D01*
G01X393Y28044D01*
G37*

%LPD*%
G36*
G01X10680Y-22D02*
G01X10680Y1501D01*
G01X6743Y1501D01*
G01X6743Y3914D01*
G01X393Y3914D01*
G01X161Y3787D01*
G01X12Y3533D01*
G01X12Y612D01*
G01X141Y372D01*
G01X393Y231D01*
G01X5092Y231D01*
G01X5092Y-22D01*
G01X10680Y-22D01*
G37*

%LPD*%
G36*
G01X10680Y11788D02*
G01X10680Y10264D01*
G01X5092Y10264D01*
G01X5092Y14328D01*
G01X6743Y14328D01*
G01X6743Y11788D01*
G01X10680Y11788D01*
G37*

%LPD*%
G36*
G01X20459Y10137D02*
G01X20459Y13693D01*
G01X20459Y14455D01*
G01X24015Y14455D01*
G01X24015Y10137D01*
G01X20459Y10137D01*
G37*

%LPD*%
G36*
G01X10959Y12310D02*
G01X10934Y14328D01*
G01X14871Y14328D01*
G01X15506Y13820D01*
G01X15209Y10260D01*
G01X10959Y10260D01*
G01X10959Y12310D01*
G37*

%LPD*%
G36*
G01X4203Y17757D02*
G01X4203Y15090D01*
G01X6743Y15090D01*
G01X7251Y15090D01*
G01X9156Y15090D01*
G01X9135Y16602D01*
G01X7759Y16614D01*
G01X7759Y17757D01*
G01X4203Y17757D01*
G37*

%LPD*%
G36*
G01X4203Y7470D02*
G01X4203Y4803D01*
G01X9156Y4803D01*
G01X9156Y6327D01*
G01X7759Y6327D01*
G01X7759Y7470D01*
G01X4203Y7470D01*
G37*

%LPD*%
G36*
G01X20459Y-22D02*
G01X20459Y3533D01*
G01X20459Y4295D01*
G01X24015Y4295D01*
G01X24015Y-22D01*
G01X20459Y-22D01*
G37*

%LPD*%
G36*
G01X21983Y4041D02*
G01X21983Y-22D01*
G01X10934Y-22D01*
G01X10934Y4041D01*
G01X21983Y4041D01*
G37*

%LPD*%
G36*
G01X32855Y24402D02*
G01X32855Y31302D01*
G01X39155Y31302D01*
G01X39155Y24402D01*
G01X32855Y24402D01*
G37*

%LPD*%
G36*
G01X5355Y26502D02*
G01X4555Y27802D01*
G01X5355Y27802D01*
G01X5355Y26502D01*
G37*

%LPD*%
G36*
G01X11524Y27077D02*
G01X9528Y27082D01*
G01X9528Y25586D01*
G01X11529Y25581D01*
G01X11524Y27077D01*
G37*

%LPD*%
G36*
G01X9132Y27077D02*
G01X7141Y27082D01*
G01X7146Y25586D01*
G01X9132Y25586D01*
G01X9132Y27077D01*
G37*

%LPD*%
G36*
G01X11519Y25046D02*
G01X7136Y25055D01*
G01X7125Y22699D01*
G01X9319Y22719D01*
G01X11514Y22689D01*
G01X11519Y25046D01*
G37*

%LPD*%
G36*
G01X11542Y16656D02*
G01X9545Y16661D01*
G01X9545Y15164D01*
G01X11547Y15159D01*
G01X11542Y16656D01*
G37*

%LPD*%
G36*
G01X9150Y16656D02*
G01X7159Y16661D01*
G01X7164Y15164D01*
G01X9150Y15164D01*
G01X9150Y16656D01*
G37*

%LPD*%
G36*
G01X11537Y14624D02*
G01X7154Y14634D01*
G01X7143Y12278D01*
G01X9337Y12298D01*
G01X11532Y12268D01*
G01X11537Y14624D01*
G37*

%LPD*%
G36*
G01X11542Y6369D02*
G01X9545Y6374D01*
G01X9545Y4877D01*
G01X11547Y4872D01*
G01X11542Y6369D01*
G37*

%LPD*%
G36*
G01X9150Y6369D02*
G01X7159Y6374D01*
G01X7164Y4877D01*
G01X9150Y4877D01*
G01X9150Y6369D01*
G37*

%LPD*%
G36*
G01X11537Y4337D02*
G01X7154Y4347D01*
G01X7143Y1991D01*
G01X9337Y2011D01*
G01X11532Y1981D01*
G01X11537Y4337D01*
G37*
G54D34*
G01X-3844Y12942D03*
G01X-3844Y7862D03*
G01X-3841Y24240D03*
G01X-3841Y19160D03*
G54D16*
G01X10055Y26002D03*
G01X11007Y25958D03*
G01X10045Y26712D03*
G01X10995Y26719D03*
G01X13728Y28425D03*
G01X5418Y21069D03*
G01X5418Y21926D03*
G01X5418Y22688D03*
G01X5418Y23450D03*
G01X5418Y24212D03*
G01X6299Y21069D03*
G01X7197Y21069D03*
G01X8171Y21069D03*
G01X9070Y21069D03*
G01X9952Y21069D03*
G54D20*
G01X11455Y30002D03*
G54D16*
G01X3441Y24488D03*
G01X3441Y21694D03*
G01X650Y30074D03*
G01X647Y29314D03*
G01X638Y28562D03*
G01X1536Y30076D03*
G01X1536Y29314D03*
G01X1536Y28552D03*
G01X2428Y30074D03*
G01X2425Y29314D03*
G01X2407Y28572D03*
G01X3314Y30076D03*
G01X3314Y29314D03*
G01X3305Y28562D03*
G01X777Y2515D03*
G01X767Y1636D03*
G01X767Y747D03*
G01X1656Y2525D03*
G01X1647Y1646D03*
G01X1647Y757D03*
G01X2545Y2525D03*
G01X2536Y1646D03*
G01X2536Y757D03*
G01X3444Y2515D03*
G01X3434Y1636D03*
G01X3434Y747D03*
G01X774Y3406D03*
G01X1654Y3416D03*
G01X2543Y3416D03*
G01X3441Y3406D03*
G01X5473Y10645D03*
G01X6355Y10645D03*
G01X7253Y10645D03*
G01X8227Y10645D03*
G01X9125Y10645D03*
G01X10008Y10645D03*
G01X5476Y11405D03*
G01X5476Y12167D03*
G01X5476Y13056D03*
G01X650Y30836D03*
G01X1536Y30838D03*
G01X2425Y30838D03*
G01X3317Y30836D03*
G01X3314Y14201D03*
G01X3314Y11407D03*
G01X5473Y13820D03*
G01X5473Y358D03*
G01X6355Y358D03*
G01X7253Y358D03*
G01X8227Y358D03*
G01X9125Y358D03*
G01X10008Y358D03*
G01X5476Y1118D03*
G01X5476Y1880D03*
G01X5476Y2769D03*
G01X5473Y3533D03*
G01X3314Y8486D03*
G01X3314Y5692D03*
G01X10045Y15471D03*
G01X10995Y15478D03*
G01X10034Y16232D03*
G01X10984Y16239D03*
G01X11569Y19535D03*
G01X13855Y18138D03*
G01X10057Y5239D03*
G01X11007Y5247D03*
G01X10045Y6001D03*
G01X10995Y6008D03*
G01X13728Y7597D03*
G01X11572Y9119D03*
G01X16256Y19662D03*
G01X17537Y19680D03*
G01X18796Y15142D03*
G01X17517Y15140D03*
G01X17958Y10000D03*
G01X16556Y11102D03*
G01X15256Y23602D03*
G01X16957Y24600D03*
G01X26055Y19302D03*
G01X21256Y15102D03*
G01X27355Y17002D03*
G01X23956Y19002D03*
G01X21657Y28500D03*
G01X26357Y28000D03*
G01X31355Y26602D03*
G01X36255Y23202D03*
G01X34455Y19102D03*
G01X34555Y15302D03*
G01X32455Y19102D03*
G01X33957Y21200D03*
G01X32357Y15300D03*
G01X4256Y7002D03*
G01X3556Y7002D03*
G01X2856Y7002D03*
G01X2155Y7002D03*
G01X4258Y17600D03*
G01X3558Y17600D03*
G01X2858Y17600D03*
G01X2158Y17600D03*
G01X4256Y16802D03*
G01X3556Y16802D03*
G01X2856Y16802D03*
G01X2155Y16802D03*
G01X4258Y16000D03*
G01X3558Y16000D03*
G01X2858Y16000D03*
G01X2158Y16000D03*
G54D21*
G01X30655Y8602D03*
G01X30655Y7002D03*
G01X31958Y9900D03*
G01X32155Y13702D03*
G01X33055Y5202D03*
G01X27057Y12000D03*
G54D16*
G01X26958Y15800D03*
G01X28357Y15800D03*
G54D21*
G01X29357Y14300D03*
G01X16157Y5900D03*
G01X24256Y7702D03*
G01X29155Y16302D03*
G01X25355Y12802D03*
G54D17*
G01X38455Y11302D03*
G01X38455Y10002D03*
G01X38455Y8702D03*
G01X38455Y7402D03*
G01X38455Y6102D03*
G01X38455Y4802D03*
G01X38455Y3502D03*
G01X38455Y2202D03*
G01X38455Y902D03*
G54D21*
G01X30256Y1602D03*
G01X29055Y11302D03*
G01X25755Y3402D03*
G01X27055Y7802D03*
M00*
M02*
