G04 Layer: BottomLayer*
G04 EasyEDA v5.9.41, Mon, 04 Feb 2019 09:10:30 GMT*
G04 f7da754788ad4d128d84d1fb51d08027*
G04 Gerber Generator version 0.2*
G04 Scale: 100 percent, Rotated: No, Reflected: No *
G04 Dimensions in millimeters *
G04 leading zeros omitted , absolute positions ,3 integer and 3 decimal *
%FSLAX33Y33*%
%MOMM*%
G90*
G71D02*

%ADD11C,0.249999*%
%ADD12C,0.499999*%
%ADD13C,0.399999*%
%ADD14C,0.350012*%
%ADD15C,0.299999*%
%ADD16C,0.599999*%
%ADD17C,0.999998*%
%ADD19C,0.050000*%
%ADD20C,0.700024*%
%ADD21C,0.619760*%
%ADD23R,1.160018X1.469898*%
%ADD27R,1.999996X1.499997*%
%ADD28R,1.469898X1.160018*%
%ADD29R,1.099998X0.999998*%
%ADD33R,1.999996X3.799992*%
%ADD34C,1.524000*%
%ADD35C,0.699999*%
%ADD36C,0.749999*%
%ADD37C,0.449999*%
%ADD38C,0.649999*%
%ADD39R,1.600200X1.800860*%
%ADD40R,0.398780X0.398780*%
%ADD41R,0.999998X1.099998*%

%LPD*%
G36*
G01X1798Y4802D02*
G01X1808Y28074D01*
G01X1808Y28074D01*
G01X1808Y28077D01*
G01X1808Y28080D01*
G01X1808Y28082D01*
G01X1808Y28085D01*
G01X1808Y28088D01*
G01X1807Y28091D01*
G01X1807Y28094D01*
G01X1807Y28096D01*
G01X1806Y28099D01*
G01X1806Y28102D01*
G01X4655Y28102D01*
G01X4655Y4802D01*
G01X1798Y4802D01*
G37*

%LPD*%
G36*
G01X16455Y153D02*
G01X16455Y2791D01*
G01X37555Y2791D01*
G01X37555Y154D01*
G01X16455Y153D01*
G37*

%LPD*%
G36*
G01X16455Y2791D02*
G01X16455Y4012D01*
G01X25755Y4012D01*
G01X25745Y4012D01*
G01X25734Y4012D01*
G01X25723Y4011D01*
G01X25713Y4011D01*
G01X25702Y4010D01*
G01X25691Y4009D01*
G01X25681Y4008D01*
G01X25670Y4006D01*
G01X25659Y4005D01*
G01X25649Y4003D01*
G01X25638Y4001D01*
G01X25628Y3999D01*
G01X25617Y3996D01*
G01X25607Y3994D01*
G01X25597Y3991D01*
G01X25586Y3988D01*
G01X25576Y3985D01*
G01X25566Y3982D01*
G01X25556Y3979D01*
G01X25546Y3975D01*
G01X25535Y3971D01*
G01X25526Y3967D01*
G01X25516Y3963D01*
G01X25506Y3959D01*
G01X25496Y3954D01*
G01X25486Y3950D01*
G01X25477Y3945D01*
G01X25467Y3940D01*
G01X25458Y3935D01*
G01X25449Y3930D01*
G01X25439Y3924D01*
G01X25430Y3918D01*
G01X25421Y3913D01*
G01X25412Y3907D01*
G01X25404Y3901D01*
G01X25395Y3894D01*
G01X25386Y3888D01*
G01X25378Y3881D01*
G01X25369Y3875D01*
G01X25361Y3868D01*
G01X25353Y3861D01*
G01X25345Y3854D01*
G01X25337Y3846D01*
G01X25329Y3839D01*
G01X25322Y3832D01*
G01X25314Y3824D01*
G01X25307Y3816D01*
G01X25300Y3808D01*
G01X25293Y3800D01*
G01X25286Y3792D01*
G01X25279Y3784D01*
G01X25272Y3775D01*
G01X25266Y3767D01*
G01X25260Y3758D01*
G01X25254Y3749D01*
G01X25247Y3740D01*
G01X25242Y3731D01*
G01X25236Y3722D01*
G01X25230Y3713D01*
G01X25225Y3704D01*
G01X25220Y3695D01*
G01X25215Y3685D01*
G01X25210Y3676D01*
G01X25205Y3666D01*
G01X25201Y3656D01*
G01X25196Y3647D01*
G01X25192Y3637D01*
G01X25188Y3627D01*
G01X25184Y3617D01*
G01X25180Y3607D01*
G01X25177Y3597D01*
G01X25174Y3586D01*
G01X25170Y3576D01*
G01X25167Y3566D01*
G01X25165Y3555D01*
G01X25162Y3545D01*
G01X25160Y3535D01*
G01X25157Y3524D01*
G01X25155Y3514D01*
G01X25153Y3503D01*
G01X25152Y3493D01*
G01X25150Y3482D01*
G01X25149Y3471D01*
G01X25148Y3461D01*
G01X25147Y3450D01*
G01X25146Y3439D01*
G01X25146Y3429D01*
G01X25145Y3418D01*
G01X25145Y3407D01*
G01X25145Y3396D01*
G01X25145Y3386D01*
G01X25146Y3375D01*
G01X25146Y3364D01*
G01X25147Y3354D01*
G01X25148Y3343D01*
G01X25149Y3332D01*
G01X25150Y3322D01*
G01X25152Y3311D01*
G01X25153Y3301D01*
G01X25155Y3290D01*
G01X25157Y3279D01*
G01X25160Y3269D01*
G01X25162Y3259D01*
G01X25165Y3248D01*
G01X25167Y3238D01*
G01X25170Y3228D01*
G01X25174Y3217D01*
G01X25177Y3207D01*
G01X25180Y3197D01*
G01X25184Y3187D01*
G01X25188Y3177D01*
G01X25192Y3167D01*
G01X25196Y3157D01*
G01X25201Y3147D01*
G01X25205Y3138D01*
G01X25210Y3128D01*
G01X25215Y3119D01*
G01X25220Y3109D01*
G01X25225Y3100D01*
G01X25230Y3090D01*
G01X25236Y3081D01*
G01X25242Y3072D01*
G01X25247Y3063D01*
G01X25254Y3054D01*
G01X25260Y3046D01*
G01X25266Y3037D01*
G01X25272Y3028D01*
G01X25279Y3020D01*
G01X25286Y3012D01*
G01X25293Y3004D01*
G01X25300Y2996D01*
G01X25307Y2988D01*
G01X25314Y2980D01*
G01X25322Y2972D01*
G01X25329Y2965D01*
G01X25337Y2957D01*
G01X25345Y2950D01*
G01X25353Y2943D01*
G01X25361Y2936D01*
G01X25369Y2929D01*
G01X25378Y2922D01*
G01X25386Y2916D01*
G01X25395Y2909D01*
G01X25404Y2903D01*
G01X25412Y2897D01*
G01X25421Y2891D01*
G01X25430Y2885D01*
G01X25439Y2880D01*
G01X25449Y2874D01*
G01X25458Y2869D01*
G01X25467Y2864D01*
G01X25477Y2859D01*
G01X25486Y2854D01*
G01X25496Y2849D01*
G01X25506Y2845D01*
G01X25516Y2841D01*
G01X25526Y2836D01*
G01X25535Y2832D01*
G01X25546Y2829D01*
G01X25556Y2825D01*
G01X25566Y2822D01*
G01X25576Y2818D01*
G01X25586Y2815D01*
G01X25597Y2812D01*
G01X25607Y2810D01*
G01X25617Y2807D01*
G01X25628Y2805D01*
G01X25638Y2803D01*
G01X25649Y2801D01*
G01X25659Y2799D01*
G01X25670Y2797D01*
G01X25681Y2796D01*
G01X25691Y2795D01*
G01X25702Y2794D01*
G01X25713Y2793D01*
G01X25723Y2792D01*
G01X25734Y2792D01*
G01X25745Y2792D01*
G01X25755Y2791D01*
G01X16455Y2791D01*
G37*

%LPD*%
G36*
G01X25755Y2791D02*
G01X25766Y2792D01*
G01X25777Y2792D01*
G01X25788Y2792D01*
G01X25799Y2793D01*
G01X25810Y2794D01*
G01X25821Y2795D01*
G01X25831Y2796D01*
G01X25842Y2798D01*
G01X25853Y2799D01*
G01X25864Y2801D01*
G01X25875Y2803D01*
G01X25885Y2805D01*
G01X25896Y2808D01*
G01X25906Y2810D01*
G01X25917Y2813D01*
G01X25927Y2816D01*
G01X25938Y2819D01*
G01X25948Y2823D01*
G01X25959Y2826D01*
G01X25969Y2830D01*
G01X25979Y2834D01*
G01X25989Y2838D01*
G01X25999Y2842D01*
G01X26009Y2847D01*
G01X26019Y2851D01*
G01X37555Y2851D01*
G01X37555Y2791D01*
G01X25755Y2791D01*
G37*

%LPD*%
G36*
G01X16455Y4012D02*
G01X16455Y5349D01*
G01X26568Y5349D01*
G01X26568Y4012D01*
G01X16455Y4012D01*
G37*

%LPD*%
G36*
G01X26019Y3952D02*
G01X26009Y3957D01*
G01X25999Y3961D01*
G01X25989Y3966D01*
G01X25979Y3970D01*
G01X25969Y3974D01*
G01X25959Y3977D01*
G01X25948Y3981D01*
G01X25938Y3984D01*
G01X25928Y3987D01*
G01X25917Y3990D01*
G01X25907Y3993D01*
G01X25896Y3996D01*
G01X25885Y3998D01*
G01X25875Y4000D01*
G01X25864Y4002D01*
G01X25853Y4004D01*
G01X25842Y4006D01*
G01X25832Y4007D01*
G01X25821Y4009D01*
G01X25810Y4010D01*
G01X25799Y4011D01*
G01X25788Y4011D01*
G01X25777Y4012D01*
G01X25766Y4012D01*
G01X25755Y4012D01*
G01X26568Y4012D01*
G01X26568Y3952D01*
G01X26019Y3952D01*
G37*

%LPD*%
G36*
G01X27355Y2851D02*
G01X27365Y2851D01*
G01X27375Y2852D01*
G01X27384Y2852D01*
G01X27394Y2853D01*
G01X27403Y2853D01*
G01X27413Y2854D01*
G01X27422Y2855D01*
G01X27432Y2857D01*
G01X27442Y2858D01*
G01X27451Y2860D01*
G01X27460Y2861D01*
G01X27470Y2863D01*
G01X27479Y2865D01*
G01X27489Y2868D01*
G01X27498Y2870D01*
G01X27507Y2873D01*
G01X27516Y2875D01*
G01X27526Y2878D01*
G01X27535Y2881D01*
G01X27544Y2884D01*
G01X27553Y2888D01*
G01X27562Y2891D01*
G01X27571Y2895D01*
G01X27579Y2899D01*
G01X27588Y2903D01*
G01X27597Y2907D01*
G01X27605Y2911D01*
G01X27614Y2916D01*
G01X27622Y2920D01*
G01X27631Y2925D01*
G01X27639Y2930D01*
G01X27647Y2935D01*
G01X27655Y2940D01*
G01X27663Y2945D01*
G01X27671Y2951D01*
G01X27679Y2956D01*
G01X27687Y2962D01*
G01X27694Y2968D01*
G01X27702Y2974D01*
G01X27709Y2980D01*
G01X27717Y2986D01*
G01X27724Y2993D01*
G01X27731Y2999D01*
G01X27738Y3006D01*
G01X27745Y3013D01*
G01X28135Y3403D01*
G01X37555Y3403D01*
G01X37555Y2851D01*
G01X27355Y2851D01*
G37*

%LPD*%
G36*
G01X22453Y5349D02*
G01X22463Y5349D01*
G01X22473Y5350D01*
G01X22482Y5350D01*
G01X22492Y5351D01*
G01X22501Y5352D01*
G01X22511Y5352D01*
G01X22520Y5354D01*
G01X22530Y5355D01*
G01X22540Y5356D01*
G01X22549Y5358D01*
G01X22558Y5360D01*
G01X22568Y5361D01*
G01X22577Y5364D01*
G01X22587Y5366D01*
G01X22596Y5368D01*
G01X22605Y5371D01*
G01X22614Y5373D01*
G01X22624Y5376D01*
G01X22633Y5379D01*
G01X22642Y5383D01*
G01X22651Y5386D01*
G01X22660Y5389D01*
G01X22668Y5393D01*
G01X22677Y5397D01*
G01X22686Y5401D01*
G01X22695Y5405D01*
G01X22703Y5409D01*
G01X22712Y5414D01*
G01X22720Y5418D01*
G01X22729Y5423D01*
G01X22737Y5428D01*
G01X22745Y5433D01*
G01X22753Y5438D01*
G01X22761Y5444D01*
G01X22769Y5449D01*
G01X22777Y5455D01*
G01X22785Y5460D01*
G01X22792Y5466D01*
G01X22800Y5472D01*
G01X22807Y5478D01*
G01X22815Y5484D01*
G01X22822Y5491D01*
G01X22829Y5497D01*
G01X22836Y5504D01*
G01X22843Y5511D01*
G01X24458Y7126D01*
G01X24468Y7130D01*
G01X24478Y7133D01*
G01X24488Y7137D01*
G01X24498Y7142D01*
G01X24508Y7146D01*
G01X24517Y7150D01*
G01X24527Y7155D01*
G01X24536Y7160D01*
G01X24546Y7165D01*
G01X24555Y7170D01*
G01X24565Y7175D01*
G01X24574Y7181D01*
G01X24583Y7187D01*
G01X24592Y7192D01*
G01X24601Y7198D01*
G01X24609Y7204D01*
G01X24618Y7211D01*
G01X24627Y7217D01*
G01X24635Y7224D01*
G01X24643Y7230D01*
G01X24652Y7237D01*
G01X24660Y7244D01*
G01X24668Y7251D01*
G01X24675Y7259D01*
G01X24683Y7266D01*
G01X24691Y7274D01*
G01X24698Y7281D01*
G01X24705Y7289D01*
G01X24713Y7297D01*
G01X24720Y7305D01*
G01X24726Y7313D01*
G01X24733Y7322D01*
G01X24740Y7330D01*
G01X24746Y7339D01*
G01X24752Y7347D01*
G01X24759Y7356D01*
G01X24765Y7365D01*
G01X24770Y7374D01*
G01X24776Y7383D01*
G01X24782Y7392D01*
G01X24787Y7402D01*
G01X24792Y7411D01*
G01X24797Y7420D01*
G01X24802Y7430D01*
G01X24807Y7439D01*
G01X24811Y7449D01*
G01X24816Y7459D01*
G01X24820Y7469D01*
G01X24824Y7479D01*
G01X24827Y7489D01*
G01X24831Y7499D01*
G01X24835Y7509D01*
G01X24838Y7519D01*
G01X24841Y7529D01*
G01X24844Y7540D01*
G01X24847Y7550D01*
G01X24849Y7560D01*
G01X24852Y7571D01*
G01X24854Y7581D01*
G01X24856Y7592D01*
G01X24858Y7602D01*
G01X24859Y7613D01*
G01X24861Y7623D01*
G01X24862Y7634D01*
G01X24863Y7645D01*
G01X24864Y7655D01*
G01X24865Y7666D01*
G01X24865Y7677D01*
G01X24866Y7687D01*
G01X24866Y7698D01*
G01X24866Y7709D01*
G01X24866Y7719D01*
G01X24865Y7730D01*
G01X24865Y7741D01*
G01X24864Y7751D01*
G01X24863Y7762D01*
G01X24862Y7773D01*
G01X24860Y7783D01*
G01X24859Y7794D01*
G01X24857Y7804D01*
G01X24855Y7815D01*
G01X24853Y7825D01*
G01X24851Y7836D01*
G01X24849Y7846D01*
G01X24846Y7857D01*
G01X24843Y7867D01*
G01X24840Y7877D01*
G01X24837Y7888D01*
G01X24834Y7898D01*
G01X24830Y7908D01*
G01X24826Y7918D01*
G01X24823Y7928D01*
G01X24818Y7938D01*
G01X24814Y7948D01*
G01X24810Y7957D01*
G01X24805Y7967D01*
G01X24801Y7977D01*
G01X24796Y7986D01*
G01X24791Y7995D01*
G01X24785Y8005D01*
G01X24780Y8014D01*
G01X24774Y8023D01*
G01X24769Y8032D01*
G01X24763Y8041D01*
G01X24757Y8050D01*
G01X24751Y8059D01*
G01X24744Y8067D01*
G01X24738Y8076D01*
G01X24731Y8084D01*
G01X24724Y8093D01*
G01X24718Y8101D01*
G01X24710Y8109D01*
G01X24703Y8117D01*
G01X24696Y8124D01*
G01X24688Y8132D01*
G01X24681Y8140D01*
G01X24673Y8147D01*
G01X24665Y8154D01*
G01X24657Y8161D01*
G01X24649Y8168D01*
G01X24641Y8175D01*
G01X24633Y8182D01*
G01X24624Y8188D01*
G01X24616Y8195D01*
G01X24607Y8201D01*
G01X24598Y8207D01*
G01X24589Y8213D01*
G01X24580Y8219D01*
G01X24571Y8224D01*
G01X24562Y8230D01*
G01X24553Y8235D01*
G01X24543Y8240D01*
G01X24534Y8245D01*
G01X24524Y8250D01*
G01X24514Y8255D01*
G01X24505Y8259D01*
G01X24495Y8263D01*
G01X24485Y8267D01*
G01X24475Y8271D01*
G01X24465Y8275D01*
G01X24455Y8279D01*
G01X24445Y8282D01*
G01X24435Y8285D01*
G01X24424Y8288D01*
G01X24414Y8291D01*
G01X24404Y8294D01*
G01X24393Y8296D01*
G01X24383Y8299D01*
G01X24372Y8301D01*
G01X24362Y8303D01*
G01X24351Y8305D01*
G01X24341Y8306D01*
G01X24330Y8308D01*
G01X24320Y8309D01*
G01X24309Y8310D01*
G01X24298Y8311D01*
G01X24288Y8311D01*
G01X24277Y8312D01*
G01X24266Y8312D01*
G01X24256Y8312D01*
G01X26568Y8312D01*
G01X26568Y5349D01*
G01X22453Y5349D01*
G37*

%LPD*%
G36*
G01X26568Y3952D02*
G01X26568Y9540D01*
G01X26578Y9544D01*
G01X26588Y9548D01*
G01X26597Y9552D01*
G01X26607Y9556D01*
G01X26617Y9561D01*
G01X26626Y9565D01*
G01X26635Y9570D01*
G01X26645Y9575D01*
G01X26654Y9580D01*
G01X26663Y9586D01*
G01X26672Y9591D01*
G01X26681Y9597D01*
G01X26690Y9603D01*
G01X26699Y9609D01*
G01X26707Y9615D01*
G01X26716Y9621D01*
G01X26724Y9627D01*
G01X26732Y9634D01*
G01X26740Y9641D01*
G01X26749Y9648D01*
G01X26756Y9655D01*
G01X26764Y9662D01*
G01X26772Y9669D01*
G01X26779Y9676D01*
G01X28446Y11343D01*
G01X28446Y11333D01*
G01X28445Y11322D01*
G01X28445Y11311D01*
G01X28445Y11300D01*
G01X28445Y11289D01*
G01X28445Y11278D01*
G01X28446Y11268D01*
G01X28447Y11257D01*
G01X28448Y11246D01*
G01X28449Y11235D01*
G01X28450Y11224D01*
G01X28451Y11214D01*
G01X28453Y11203D01*
G01X28455Y11192D01*
G01X28457Y11182D01*
G01X28459Y11171D01*
G01X28462Y11160D01*
G01X28464Y11150D01*
G01X28467Y11139D01*
G01X28470Y11129D01*
G01X28473Y11119D01*
G01X28476Y11108D01*
G01X28480Y11098D01*
G01X28484Y11088D01*
G01X28488Y11078D01*
G01X28492Y11068D01*
G01X28496Y11058D01*
G01X28500Y11048D01*
G01X28505Y11038D01*
G01X28505Y5330D01*
G01X27127Y3952D01*
G01X26568Y3952D01*
G37*

%LPD*%
G36*
G01X28135Y3403D02*
G01X29445Y4713D01*
G01X29445Y4713D01*
G01X29451Y4719D01*
G01X29458Y4726D01*
G01X29465Y4733D01*
G01X29471Y4741D01*
G01X29477Y4748D01*
G01X29483Y4755D01*
G01X29489Y4763D01*
G01X29495Y4770D01*
G01X29501Y4778D01*
G01X29506Y4786D01*
G01X29512Y4794D01*
G01X29517Y4802D01*
G01X29522Y4810D01*
G01X29527Y4818D01*
G01X29532Y4827D01*
G01X29537Y4835D01*
G01X29541Y4843D01*
G01X29546Y4852D01*
G01X29550Y4860D01*
G01X29554Y4869D01*
G01X29558Y4878D01*
G01X29562Y4887D01*
G01X29566Y4896D01*
G01X29569Y4904D01*
G01X29573Y4913D01*
G01X29576Y4923D01*
G01X29579Y4932D01*
G01X29582Y4941D01*
G01X29585Y4950D01*
G01X29587Y4959D01*
G01X29590Y4969D01*
G01X29592Y4978D01*
G01X29594Y4987D01*
G01X29596Y4997D01*
G01X29598Y5006D01*
G01X29599Y5016D01*
G01X29601Y5025D01*
G01X29602Y5035D01*
G01X29603Y5044D01*
G01X29604Y5054D01*
G01X29605Y5063D01*
G01X29605Y5073D01*
G01X29606Y5083D01*
G01X29606Y5092D01*
G01X29606Y5102D01*
G01X29606Y5763D01*
G01X29870Y5763D01*
G01X29870Y5763D01*
G01X29870Y3403D01*
G01X28135Y3403D01*
G37*

%LPD*%
G36*
G01X29870Y3403D02*
G01X29870Y4350D01*
G01X33172Y4350D01*
G01X33172Y3403D01*
G01X29870Y3403D01*
G37*

%LPD*%
G36*
G01X33172Y3403D02*
G01X33172Y4350D01*
G01X37555Y4350D01*
G01X37555Y3403D01*
G01X33172Y3403D01*
G37*

%LPD*%
G36*
G01X16455Y6450D02*
G01X16455Y8312D01*
G01X24256Y8312D01*
G01X24245Y8312D01*
G01X24234Y8312D01*
G01X24223Y8311D01*
G01X24213Y8311D01*
G01X24202Y8310D01*
G01X24191Y8309D01*
G01X24181Y8308D01*
G01X24170Y8306D01*
G01X24159Y8305D01*
G01X24149Y8303D01*
G01X24138Y8301D01*
G01X24128Y8299D01*
G01X24117Y8296D01*
G01X24107Y8294D01*
G01X24096Y8291D01*
G01X24086Y8288D01*
G01X24076Y8285D01*
G01X24065Y8282D01*
G01X24055Y8278D01*
G01X24045Y8275D01*
G01X24035Y8271D01*
G01X24025Y8267D01*
G01X24015Y8263D01*
G01X24005Y8259D01*
G01X23996Y8254D01*
G01X23986Y8249D01*
G01X23976Y8245D01*
G01X23967Y8240D01*
G01X23957Y8234D01*
G01X23948Y8229D01*
G01X23939Y8224D01*
G01X23930Y8218D01*
G01X23921Y8212D01*
G01X23912Y8206D01*
G01X23903Y8200D01*
G01X23894Y8194D01*
G01X23886Y8187D01*
G01X23877Y8181D01*
G01X23869Y8174D01*
G01X23861Y8167D01*
G01X23852Y8160D01*
G01X23844Y8153D01*
G01X23837Y8146D01*
G01X23829Y8138D01*
G01X23821Y8131D01*
G01X23814Y8123D01*
G01X23806Y8115D01*
G01X23799Y8107D01*
G01X23792Y8099D01*
G01X23785Y8091D01*
G01X23778Y8083D01*
G01X23772Y8074D01*
G01X23765Y8066D01*
G01X23759Y8057D01*
G01X23753Y8048D01*
G01X23747Y8039D01*
G01X23741Y8030D01*
G01X23735Y8021D01*
G01X23730Y8012D01*
G01X23724Y8003D01*
G01X23719Y7993D01*
G01X23714Y7984D01*
G01X23709Y7974D01*
G01X23705Y7965D01*
G01X23700Y7955D01*
G01X23696Y7945D01*
G01X23691Y7935D01*
G01X23687Y7925D01*
G01X23684Y7915D01*
G01X23680Y7905D01*
G01X22225Y6450D01*
G01X16455Y6450D01*
G37*

%LPD*%
G36*
G01X16455Y8312D02*
G01X16455Y9186D01*
G01X26568Y9186D01*
G01X26568Y8312D01*
G01X16455Y8312D01*
G37*

%LPD*%
G36*
G01X20894Y9186D02*
G01X20899Y9186D01*
G01X20905Y9186D01*
G01X20910Y9186D01*
G01X20916Y9187D01*
G01X20921Y9187D01*
G01X20926Y9188D01*
G01X20932Y9188D01*
G01X20937Y9189D01*
G01X20943Y9190D01*
G01X20948Y9191D01*
G01X20953Y9192D01*
G01X20959Y9193D01*
G01X20964Y9194D01*
G01X20969Y9196D01*
G01X20975Y9197D01*
G01X20980Y9198D01*
G01X20985Y9200D01*
G01X20990Y9202D01*
G01X26568Y9202D01*
G01X26568Y9186D01*
G01X20894Y9186D01*
G37*

%LPD*%
G36*
G01X23355Y9202D02*
G01X23355Y9379D01*
G01X23355Y9379D01*
G01X23358Y9384D01*
G01X23360Y9389D01*
G01X23363Y9393D01*
G01X23365Y9398D01*
G01X23367Y9403D01*
G01X23369Y9408D01*
G01X23371Y9413D01*
G01X23373Y9418D01*
G01X23375Y9423D01*
G01X23376Y9428D01*
G01X23378Y9433D01*
G01X23379Y9438D01*
G01X23381Y9443D01*
G01X23382Y9448D01*
G01X23384Y9453D01*
G01X23385Y9459D01*
G01X23386Y9464D01*
G01X23387Y9469D01*
G01X23388Y9474D01*
G01X23388Y9479D01*
G01X23389Y9485D01*
G01X23390Y9490D01*
G01X23390Y9495D01*
G01X23391Y9501D01*
G01X26568Y9501D01*
G01X26568Y9202D01*
G01X23355Y9202D01*
G37*

%LPD*%
G36*
G01X26355Y9501D02*
G01X26366Y9501D01*
G01X26377Y9501D01*
G01X26387Y9501D01*
G01X26398Y9502D01*
G01X26409Y9503D01*
G01X26420Y9504D01*
G01X26431Y9505D01*
G01X26442Y9507D01*
G01X26452Y9509D01*
G01X26463Y9510D01*
G01X26474Y9512D01*
G01X26485Y9515D01*
G01X26495Y9517D01*
G01X26506Y9520D01*
G01X26516Y9523D01*
G01X26527Y9526D01*
G01X26537Y9529D01*
G01X26547Y9532D01*
G01X26558Y9536D01*
G01X26568Y9540D01*
G01X26568Y9501D01*
G01X26355Y9501D01*
G37*

%LPD*%
G36*
G01X29870Y5477D02*
G01X29870Y5763D01*
G01X30858Y5763D01*
G01X30858Y5758D01*
G01X30857Y5753D01*
G01X30857Y5477D01*
G01X29870Y5477D01*
G37*

%LPD*%
G36*
G01X29870Y5763D02*
G01X30858Y5763D01*
G01X30858Y5763D01*
G01X29870Y5763D01*
G37*

%LPD*%
G36*
G01X29870Y4350D02*
G01X29870Y4926D01*
G01X30857Y4926D01*
G01X30857Y4650D01*
G01X30858Y4645D01*
G01X30858Y4640D01*
G01X30858Y4635D01*
G01X30858Y4629D01*
G01X30859Y4624D01*
G01X30859Y4619D01*
G01X30860Y4614D01*
G01X30860Y4608D01*
G01X30861Y4603D01*
G01X30862Y4598D01*
G01X30863Y4593D01*
G01X30864Y4588D01*
G01X30865Y4583D01*
G01X30866Y4578D01*
G01X30868Y4572D01*
G01X30869Y4567D01*
G01X30871Y4562D01*
G01X30872Y4557D01*
G01X30874Y4552D01*
G01X30876Y4547D01*
G01X30877Y4543D01*
G01X30879Y4538D01*
G01X30881Y4533D01*
G01X30883Y4528D01*
G01X30886Y4523D01*
G01X30888Y4519D01*
G01X30890Y4514D01*
G01X30893Y4509D01*
G01X30895Y4505D01*
G01X30898Y4500D01*
G01X30900Y4495D01*
G01X30903Y4491D01*
G01X30906Y4487D01*
G01X30909Y4482D01*
G01X30912Y4478D01*
G01X30915Y4474D01*
G01X30918Y4469D01*
G01X30921Y4465D01*
G01X30924Y4461D01*
G01X30928Y4457D01*
G01X30931Y4453D01*
G01X30935Y4449D01*
G01X30938Y4445D01*
G01X30942Y4441D01*
G01X30945Y4438D01*
G01X30949Y4434D01*
G01X30953Y4430D01*
G01X30957Y4427D01*
G01X30961Y4423D01*
G01X30965Y4420D01*
G01X30969Y4417D01*
G01X30973Y4413D01*
G01X30977Y4410D01*
G01X30981Y4407D01*
G01X30986Y4404D01*
G01X30990Y4401D01*
G01X30994Y4398D01*
G01X30999Y4395D01*
G01X31003Y4393D01*
G01X31008Y4390D01*
G01X31012Y4387D01*
G01X31017Y4385D01*
G01X31022Y4382D01*
G01X31026Y4380D01*
G01X31031Y4378D01*
G01X31036Y4376D01*
G01X31041Y4374D01*
G01X31045Y4372D01*
G01X31050Y4370D01*
G01X31055Y4368D01*
G01X31060Y4366D01*
G01X31065Y4364D01*
G01X31070Y4363D01*
G01X31075Y4361D01*
G01X31080Y4360D01*
G01X31085Y4359D01*
G01X31090Y4357D01*
G01X31095Y4356D01*
G01X31101Y4355D01*
G01X31106Y4354D01*
G01X31111Y4353D01*
G01X31116Y4353D01*
G01X31121Y4352D01*
G01X31127Y4351D01*
G01X31132Y4351D01*
G01X31137Y4350D01*
G01X31142Y4350D01*
G01X31147Y4350D01*
G01X31153Y4350D01*
G01X31158Y4350D01*
G01X29870Y4350D01*
G37*

%LPD*%
G36*
G01X29870Y4926D02*
G01X29870Y5477D01*
G01X32154Y5477D01*
G01X32155Y4926D01*
G01X29870Y4926D01*
G37*

%LPD*%
G36*
G01X31408Y4350D02*
G01X31408Y4926D01*
G01X31907Y4926D01*
G01X31907Y4350D01*
G01X31408Y4350D01*
G37*

%LPD*%
G36*
G01X32156Y4350D02*
G01X32162Y4350D01*
G01X32167Y4350D01*
G01X32172Y4350D01*
G01X32178Y4350D01*
G01X32183Y4351D01*
G01X32188Y4351D01*
G01X32194Y4352D01*
G01X32199Y4353D01*
G01X32204Y4354D01*
G01X32210Y4355D01*
G01X32215Y4356D01*
G01X32220Y4357D01*
G01X32225Y4358D01*
G01X32230Y4359D01*
G01X32236Y4360D01*
G01X32241Y4362D01*
G01X32246Y4363D01*
G01X32251Y4365D01*
G01X32256Y4367D01*
G01X32261Y4369D01*
G01X32266Y4371D01*
G01X32271Y4373D01*
G01X32276Y4375D01*
G01X32281Y4377D01*
G01X32286Y4379D01*
G01X32291Y4381D01*
G01X32295Y4384D01*
G01X32300Y4386D01*
G01X32305Y4389D01*
G01X32309Y4392D01*
G01X32404Y4392D01*
G01X32404Y4392D01*
G01X32409Y4389D01*
G01X32414Y4386D01*
G01X32418Y4384D01*
G01X32423Y4381D01*
G01X32428Y4379D01*
G01X32433Y4377D01*
G01X32438Y4375D01*
G01X32443Y4373D01*
G01X32448Y4371D01*
G01X32453Y4369D01*
G01X32458Y4367D01*
G01X32463Y4365D01*
G01X32468Y4363D01*
G01X32473Y4362D01*
G01X32478Y4360D01*
G01X32483Y4359D01*
G01X32488Y4358D01*
G01X32494Y4357D01*
G01X32499Y4356D01*
G01X32504Y4355D01*
G01X32509Y4354D01*
G01X32515Y4353D01*
G01X32520Y4352D01*
G01X32525Y4351D01*
G01X32531Y4351D01*
G01X32536Y4350D01*
G01X32541Y4350D01*
G01X32547Y4350D01*
G01X32552Y4350D01*
G01X32558Y4350D01*
G01X32156Y4350D01*
G37*

%LPD*%
G36*
G01X33556Y4350D02*
G01X33561Y4350D01*
G01X33566Y4350D01*
G01X33572Y4350D01*
G01X33577Y4350D01*
G01X33582Y4351D01*
G01X33588Y4351D01*
G01X33593Y4352D01*
G01X33598Y4353D01*
G01X33604Y4354D01*
G01X33609Y4354D01*
G01X33614Y4355D01*
G01X33620Y4357D01*
G01X33625Y4358D01*
G01X33630Y4359D01*
G01X33635Y4360D01*
G01X33640Y4362D01*
G01X33645Y4363D01*
G01X33650Y4365D01*
G01X33656Y4367D01*
G01X33661Y4369D01*
G01X33666Y4371D01*
G01X33671Y4373D01*
G01X33675Y4375D01*
G01X33680Y4377D01*
G01X33685Y4379D01*
G01X33690Y4381D01*
G01X33695Y4384D01*
G01X33700Y4386D01*
G01X33704Y4389D01*
G01X33709Y4392D01*
G01X37555Y4392D01*
G01X37555Y4350D01*
G01X33556Y4350D01*
G37*

%LPD*%
G36*
G01X16455Y9186D02*
G01X16455Y9188D01*
G01X19387Y9188D01*
G01X19392Y9188D01*
G01X19398Y9187D01*
G01X19403Y9187D01*
G01X19409Y9186D01*
G01X19415Y9186D01*
G01X19420Y9186D01*
G01X19426Y9186D01*
G01X16455Y9186D01*
G37*

%LPD*%
G36*
G01X31408Y5477D02*
G01X31408Y5763D01*
G01X31907Y5763D01*
G01X31907Y5477D01*
G01X31408Y5477D01*
G37*

%LPD*%
G36*
G01X33709Y4392D02*
G01X33709Y4392D01*
G01X34415Y4392D01*
G01X33709Y4392D01*
G37*

%LPD*%
G36*
G01X34415Y4392D02*
G01X34408Y7504D01*
G01X37555Y10655D01*
G01X37555Y4392D01*
G01X34415Y4392D01*
G37*

%LPD*%
G36*
G01X16455Y9188D02*
G01X16455Y9202D01*
G01X17135Y9202D01*
G01X17140Y9200D01*
G01X17145Y9199D01*
G01X17150Y9197D01*
G01X17155Y9196D01*
G01X17161Y9195D01*
G01X17166Y9194D01*
G01X17171Y9193D01*
G01X17176Y9192D01*
G01X17181Y9191D01*
G01X17187Y9191D01*
G01X17192Y9190D01*
G01X17197Y9190D01*
G01X17202Y9189D01*
G01X17208Y9189D01*
G01X17213Y9189D01*
G01X17218Y9188D01*
G01X17224Y9188D01*
G01X16455Y9188D01*
G37*

%LPD*%
G36*
G01X18692Y9188D02*
G01X18692Y9188D01*
G01X18697Y9188D01*
G01X18702Y9189D01*
G01X18707Y9189D01*
G01X18713Y9189D01*
G01X18718Y9190D01*
G01X18723Y9190D01*
G01X18729Y9191D01*
G01X18734Y9191D01*
G01X18739Y9192D01*
G01X18744Y9193D01*
G01X18749Y9194D01*
G01X18755Y9195D01*
G01X18760Y9196D01*
G01X18765Y9197D01*
G01X18770Y9199D01*
G01X18775Y9200D01*
G01X18780Y9202D01*
G01X19329Y9202D01*
G01X19334Y9200D01*
G01X19340Y9199D01*
G01X19345Y9197D01*
G01X19350Y9196D01*
G01X19355Y9194D01*
G01X19360Y9193D01*
G01X19366Y9192D01*
G01X19371Y9191D01*
G01X19376Y9190D01*
G01X19381Y9189D01*
G01X19387Y9188D01*
G01X18692Y9188D01*
G37*

%LPD*%
G36*
G01X16455Y9202D02*
G01X16455Y10007D01*
G01X16923Y10007D01*
G01X16923Y9489D01*
G01X16923Y9489D01*
G01X16923Y9484D01*
G01X16923Y9478D01*
G01X16923Y9473D01*
G01X16924Y9467D01*
G01X16924Y9462D01*
G01X16925Y9456D01*
G01X16925Y9451D01*
G01X16926Y9446D01*
G01X16927Y9440D01*
G01X16928Y9435D01*
G01X16929Y9430D01*
G01X16930Y9424D01*
G01X16931Y9419D01*
G01X16933Y9414D01*
G01X16934Y9409D01*
G01X16935Y9403D01*
G01X16937Y9398D01*
G01X16939Y9393D01*
G01X16940Y9388D01*
G01X16942Y9383D01*
G01X16944Y9378D01*
G01X16946Y9373D01*
G01X16948Y9368D01*
G01X16951Y9363D01*
G01X16953Y9358D01*
G01X16955Y9353D01*
G01X16955Y9202D01*
G01X16455Y9202D01*
G37*

%LPD*%
G36*
G01X16455Y10007D02*
G01X16455Y10501D01*
G01X16662Y10501D01*
G01X16662Y10007D01*
G01X16455Y10007D01*
G37*

%LPD*%
G36*
G01X16662Y10007D02*
G01X16662Y10502D01*
G01X16923Y10502D01*
G01X16923Y10007D01*
G01X16662Y10007D01*
G37*

%LPD*%
G36*
G01X16455Y10501D02*
G01X16455Y10502D01*
G01X16533Y10502D01*
G01X16544Y10501D01*
G01X16556Y10501D01*
G01X16455Y10501D01*
G37*

%LPD*%
G36*
G01X16556Y10501D02*
G01X16567Y10501D01*
G01X16578Y10502D01*
G01X16662Y10502D01*
G01X16662Y10501D01*
G01X16556Y10501D01*
G37*

%LPD*%
G36*
G01X33105Y9722D02*
G01X33105Y9722D01*
G01X33172Y9722D01*
G01X33105Y9722D01*
G37*

%LPD*%
G36*
G01X33105Y9722D02*
G01X33115Y11942D01*
G01X33172Y12006D01*
G01X33172Y9722D01*
G01X33105Y9722D01*
G37*

%LPD*%
G36*
G01X33172Y9722D02*
G01X33172Y9722D01*
G01X33455Y9722D01*
G01X33172Y9722D01*
G37*

%LPD*%
G36*
G01X33172Y9722D02*
G01X33172Y12006D01*
G01X34055Y13002D01*
G01X34055Y13351D01*
G01X34480Y13776D01*
G01X34489Y13784D01*
G01X34496Y13792D01*
G01X34504Y13801D01*
G01X36474Y13801D01*
G01X36474Y11272D01*
G01X34926Y9722D01*
G01X33172Y9722D01*
G37*

%LPD*%
G36*
G01X33455Y8532D02*
G01X33455Y9722D01*
G01X34926Y9722D01*
G01X33737Y8532D01*
G01X33455Y8532D01*
G37*

%LPD*%
G36*
G01X35156Y13801D02*
G01X35156Y13801D01*
G01X35167Y13801D01*
G01X35177Y13801D01*
G01X35188Y13802D01*
G01X35199Y13802D01*
G01X35209Y13803D01*
G01X35220Y13804D01*
G01X35231Y13805D01*
G01X35241Y13807D01*
G01X35252Y13809D01*
G01X35263Y13810D01*
G01X35273Y13812D01*
G01X35284Y13815D01*
G01X35294Y13817D01*
G01X35304Y13819D01*
G01X35315Y13822D01*
G01X35325Y13825D01*
G01X35335Y13828D01*
G01X35346Y13832D01*
G01X35356Y13835D01*
G01X35366Y13839D01*
G01X35376Y13842D01*
G01X35386Y13847D01*
G01X35396Y13851D01*
G01X35405Y13855D01*
G01X35415Y13860D01*
G01X35425Y13864D01*
G01X35434Y13869D01*
G01X35444Y13874D01*
G01X35453Y13879D01*
G01X35462Y13885D01*
G01X35472Y13890D01*
G01X35481Y13896D01*
G01X35490Y13902D01*
G01X35498Y13908D01*
G01X35507Y13914D01*
G01X35516Y13921D01*
G01X35524Y13927D01*
G01X35533Y13934D01*
G01X35541Y13941D01*
G01X35549Y13947D01*
G01X35557Y13955D01*
G01X35565Y13962D01*
G01X35573Y13969D01*
G01X35581Y13977D01*
G01X36180Y14576D01*
G01X36187Y14584D01*
G01X36195Y14592D01*
G01X36202Y14599D01*
G01X36209Y14607D01*
G01X36216Y14616D01*
G01X36223Y14624D01*
G01X36230Y14632D01*
G01X36236Y14641D01*
G01X36242Y14650D01*
G01X36249Y14658D01*
G01X36255Y14667D01*
G01X36261Y14676D01*
G01X36266Y14685D01*
G01X36272Y14694D01*
G01X36277Y14704D01*
G01X36282Y14713D01*
G01X36287Y14722D01*
G01X36292Y14732D01*
G01X36297Y14742D01*
G01X36302Y14751D01*
G01X36306Y14761D01*
G01X36310Y14771D01*
G01X36314Y14781D01*
G01X36318Y14791D01*
G01X36322Y14801D01*
G01X36325Y14811D01*
G01X36328Y14821D01*
G01X36332Y14832D01*
G01X36334Y14842D01*
G01X36337Y14852D01*
G01X36340Y14863D01*
G01X36342Y14873D01*
G01X36344Y14884D01*
G01X36346Y14894D01*
G01X36348Y14905D01*
G01X36350Y14915D01*
G01X36351Y14926D01*
G01X36352Y14937D01*
G01X36353Y14947D01*
G01X36354Y14958D01*
G01X36355Y14969D01*
G01X36355Y14979D01*
G01X36356Y14990D01*
G01X36356Y15001D01*
G01X36356Y18602D01*
G01X36356Y18602D01*
G01X36356Y18613D01*
G01X36355Y18624D01*
G01X36355Y18635D01*
G01X36354Y18645D01*
G01X36353Y18656D01*
G01X36352Y18667D01*
G01X36351Y18677D01*
G01X36350Y18688D01*
G01X36348Y18699D01*
G01X36346Y18709D01*
G01X36344Y18720D01*
G01X36342Y18730D01*
G01X36340Y18741D01*
G01X36337Y18751D01*
G01X36334Y18761D01*
G01X36332Y18772D01*
G01X36328Y18782D01*
G01X36325Y18792D01*
G01X36322Y18802D01*
G01X36318Y18812D01*
G01X36314Y18822D01*
G01X36310Y18832D01*
G01X36306Y18842D01*
G01X36302Y18852D01*
G01X36297Y18862D01*
G01X36292Y18871D01*
G01X36287Y18881D01*
G01X36282Y18890D01*
G01X36277Y18900D01*
G01X36272Y18909D01*
G01X36266Y18918D01*
G01X36261Y18927D01*
G01X36255Y18936D01*
G01X36249Y18945D01*
G01X36242Y18954D01*
G01X36236Y18962D01*
G01X36230Y18971D01*
G01X36223Y18979D01*
G01X36216Y18988D01*
G01X36209Y18996D01*
G01X36202Y19004D01*
G01X36195Y19012D01*
G01X36187Y19019D01*
G01X36180Y19027D01*
G01X36180Y19027D01*
G01X36474Y19027D01*
G01X36474Y13801D01*
G01X35156Y13801D01*
G37*

%LPD*%
G36*
G01X36474Y11272D02*
G01X36474Y19913D01*
G01X37456Y19913D01*
G01X37456Y12255D01*
G01X36474Y11272D01*
G37*

%LPD*%
G36*
G01X36180Y19027D02*
G01X35680Y19527D01*
G01X35672Y19535D01*
G01X35664Y19542D01*
G01X35656Y19550D01*
G01X35648Y19557D01*
G01X35640Y19564D01*
G01X35632Y19570D01*
G01X35623Y19577D01*
G01X35615Y19584D01*
G01X35606Y19590D01*
G01X35597Y19596D01*
G01X35589Y19602D01*
G01X35580Y19608D01*
G01X35571Y19614D01*
G01X35561Y19619D01*
G01X35552Y19625D01*
G01X35543Y19630D01*
G01X35533Y19635D01*
G01X35524Y19640D01*
G01X35514Y19645D01*
G01X35504Y19649D01*
G01X35495Y19653D01*
G01X35485Y19658D01*
G01X35475Y19662D01*
G01X35465Y19665D01*
G01X35455Y19669D01*
G01X35445Y19673D01*
G01X35434Y19676D01*
G01X35424Y19679D01*
G01X35414Y19682D01*
G01X35403Y19685D01*
G01X35393Y19687D01*
G01X35383Y19690D01*
G01X35372Y19692D01*
G01X35362Y19694D01*
G01X35351Y19696D01*
G01X35340Y19697D01*
G01X35330Y19699D01*
G01X35319Y19700D01*
G01X35309Y19701D01*
G01X35298Y19702D01*
G01X35287Y19702D01*
G01X35276Y19703D01*
G01X35266Y19703D01*
G01X35255Y19703D01*
G01X36474Y19703D01*
G01X36474Y19027D01*
G01X36180Y19027D01*
G37*

%LPD*%
G36*
G01X30595Y19913D02*
G01X29870Y20638D01*
G01X29870Y22602D01*
G01X36106Y22602D01*
G01X37456Y21252D01*
G01X37456Y19913D01*
G01X30595Y19913D01*
G37*

%LPD*%
G36*
G01X33172Y19703D02*
G01X33172Y19913D01*
G01X36474Y19913D01*
G01X36474Y19703D01*
G01X33172Y19703D01*
G37*

%LPD*%
G36*
G01X29870Y20638D02*
G01X26156Y24350D01*
G01X29870Y24350D01*
G01X29870Y20638D01*
G37*

%LPD*%
G36*
G01X30805Y19703D02*
G01X30595Y19913D01*
G01X33172Y19913D01*
G01X33172Y19703D01*
G01X30805Y19703D01*
G37*

%LPD*%
G36*
G01X29870Y22602D02*
G01X29870Y23215D01*
G01X35648Y23215D01*
G01X35655Y22602D01*
G01X29870Y22602D01*
G37*

%LPD*%
G36*
G01X32699Y19652D02*
G01X32699Y19652D01*
G01X32689Y19656D01*
G01X32679Y19660D01*
G01X32669Y19664D01*
G01X32659Y19668D01*
G01X32649Y19672D01*
G01X32638Y19675D01*
G01X32628Y19678D01*
G01X32617Y19681D01*
G01X32607Y19684D01*
G01X32596Y19687D01*
G01X32586Y19689D01*
G01X32575Y19691D01*
G01X32564Y19693D01*
G01X32554Y19695D01*
G01X32543Y19697D01*
G01X32532Y19699D01*
G01X32521Y19700D01*
G01X32510Y19701D01*
G01X32499Y19702D01*
G01X32489Y19702D01*
G01X32478Y19703D01*
G01X32467Y19703D01*
G01X32456Y19703D01*
G01X33172Y19703D01*
G01X33172Y19652D01*
G01X32699Y19652D01*
G37*

%LPD*%
G36*
G01X33172Y19652D02*
G01X33172Y19703D01*
G01X34455Y19703D01*
G01X34455Y19703D01*
G01X34444Y19703D01*
G01X34433Y19703D01*
G01X34422Y19702D01*
G01X34411Y19702D01*
G01X34400Y19701D01*
G01X34390Y19700D01*
G01X34379Y19699D01*
G01X34368Y19697D01*
G01X34357Y19695D01*
G01X34346Y19693D01*
G01X34336Y19691D01*
G01X34325Y19689D01*
G01X34314Y19687D01*
G01X34304Y19684D01*
G01X34293Y19681D01*
G01X34283Y19678D01*
G01X34272Y19675D01*
G01X34262Y19672D01*
G01X34252Y19668D01*
G01X34242Y19664D01*
G01X34231Y19660D01*
G01X34221Y19656D01*
G01X34211Y19652D01*
G01X33172Y19652D01*
G37*

%LPD*%
G36*
G01X26156Y24350D02*
G01X25480Y25025D01*
G01X28155Y25025D01*
G01X28155Y24650D01*
G01X28155Y24650D01*
G01X28155Y24645D01*
G01X28155Y24640D01*
G01X28155Y24634D01*
G01X28156Y24629D01*
G01X28156Y24624D01*
G01X28157Y24618D01*
G01X28157Y24613D01*
G01X28158Y24608D01*
G01X28159Y24603D01*
G01X28160Y24597D01*
G01X28161Y24592D01*
G01X28162Y24587D01*
G01X28163Y24582D01*
G01X28164Y24577D01*
G01X28165Y24572D01*
G01X28167Y24566D01*
G01X28168Y24561D01*
G01X28170Y24556D01*
G01X28172Y24551D01*
G01X28173Y24546D01*
G01X28175Y24541D01*
G01X28177Y24536D01*
G01X28179Y24532D01*
G01X28181Y24527D01*
G01X28184Y24522D01*
G01X28186Y24517D01*
G01X28188Y24512D01*
G01X28191Y24508D01*
G01X28193Y24503D01*
G01X28196Y24498D01*
G01X28199Y24494D01*
G01X28202Y24489D01*
G01X28204Y24485D01*
G01X28207Y24481D01*
G01X28210Y24476D01*
G01X28214Y24472D01*
G01X28217Y24468D01*
G01X28220Y24463D01*
G01X28223Y24459D01*
G01X28227Y24455D01*
G01X28230Y24451D01*
G01X28234Y24447D01*
G01X28237Y24443D01*
G01X28241Y24440D01*
G01X28245Y24436D01*
G01X28249Y24432D01*
G01X28252Y24429D01*
G01X28256Y24425D01*
G01X28260Y24422D01*
G01X28265Y24418D01*
G01X28269Y24415D01*
G01X28273Y24412D01*
G01X28277Y24408D01*
G01X28281Y24405D01*
G01X28286Y24402D01*
G01X28290Y24399D01*
G01X28295Y24396D01*
G01X28299Y24394D01*
G01X28304Y24391D01*
G01X28308Y24388D01*
G01X28313Y24386D01*
G01X28318Y24383D01*
G01X28322Y24381D01*
G01X28327Y24378D01*
G01X28332Y24376D01*
G01X28337Y24374D01*
G01X28342Y24372D01*
G01X28347Y24370D01*
G01X28352Y24368D01*
G01X28357Y24366D01*
G01X28362Y24365D01*
G01X28367Y24363D01*
G01X28372Y24362D01*
G01X28377Y24360D01*
G01X28382Y24359D01*
G01X28387Y24358D01*
G01X28392Y24356D01*
G01X28397Y24355D01*
G01X28403Y24354D01*
G01X28408Y24353D01*
G01X28413Y24353D01*
G01X28418Y24352D01*
G01X28424Y24351D01*
G01X28429Y24351D01*
G01X28434Y24350D01*
G01X28440Y24350D01*
G01X28445Y24350D01*
G01X28450Y24350D01*
G01X28455Y24350D01*
G01X26156Y24350D01*
G37*

%LPD*%
G36*
G01X28955Y24350D02*
G01X28955Y25025D01*
G01X29870Y25025D01*
G01X29870Y24350D01*
G01X28955Y24350D01*
G37*

%LPD*%
G36*
G01X29870Y24350D02*
G01X29870Y25025D01*
G01X29955Y25025D01*
G01X29955Y24350D01*
G01X29870Y24350D01*
G37*

%LPD*%
G36*
G01X29870Y24001D02*
G01X29870Y24350D01*
G01X32555Y24350D01*
G01X32555Y24302D01*
G01X32555Y24296D01*
G01X32555Y24291D01*
G01X32555Y24286D01*
G01X32556Y24281D01*
G01X32556Y24276D01*
G01X32557Y24270D01*
G01X32557Y24265D01*
G01X32558Y24260D01*
G01X32559Y24255D01*
G01X32560Y24250D01*
G01X32560Y24244D01*
G01X32562Y24239D01*
G01X32563Y24234D01*
G01X32564Y24229D01*
G01X32565Y24224D01*
G01X32567Y24219D01*
G01X32568Y24214D01*
G01X32570Y24209D01*
G01X32571Y24204D01*
G01X32573Y24199D01*
G01X32575Y24194D01*
G01X32577Y24189D01*
G01X32579Y24184D01*
G01X32581Y24179D01*
G01X32583Y24175D01*
G01X32585Y24170D01*
G01X32588Y24165D01*
G01X32590Y24161D01*
G01X32593Y24156D01*
G01X32595Y24151D01*
G01X32598Y24147D01*
G01X32601Y24142D01*
G01X32603Y24138D01*
G01X32606Y24134D01*
G01X32609Y24129D01*
G01X32612Y24125D01*
G01X32615Y24121D01*
G01X32619Y24117D01*
G01X32622Y24113D01*
G01X32625Y24109D01*
G01X32629Y24105D01*
G01X32632Y24101D01*
G01X32636Y24097D01*
G01X32639Y24093D01*
G01X32643Y24089D01*
G01X32647Y24086D01*
G01X32651Y24082D01*
G01X32654Y24078D01*
G01X32658Y24075D01*
G01X32662Y24072D01*
G01X32666Y24068D01*
G01X32670Y24065D01*
G01X32675Y24062D01*
G01X32679Y24059D01*
G01X32683Y24056D01*
G01X32687Y24053D01*
G01X32692Y24050D01*
G01X32696Y24047D01*
G01X32701Y24044D01*
G01X32705Y24041D01*
G01X32710Y24039D01*
G01X32714Y24036D01*
G01X32719Y24034D01*
G01X32724Y24032D01*
G01X32728Y24029D01*
G01X32733Y24027D01*
G01X32738Y24025D01*
G01X32743Y24023D01*
G01X32748Y24021D01*
G01X32753Y24019D01*
G01X32758Y24018D01*
G01X32763Y24016D01*
G01X32768Y24014D01*
G01X32773Y24013D01*
G01X32778Y24011D01*
G01X32783Y24010D01*
G01X32788Y24009D01*
G01X32793Y24008D01*
G01X32798Y24007D01*
G01X32803Y24006D01*
G01X32808Y24005D01*
G01X32814Y24004D01*
G01X32819Y24003D01*
G01X32824Y24003D01*
G01X32829Y24002D01*
G01X32834Y24002D01*
G01X32840Y24002D01*
G01X32845Y24001D01*
G01X32850Y24001D01*
G01X32855Y24001D01*
G01X29870Y24001D01*
G37*

%LPD*%
G36*
G01X29870Y23215D02*
G01X29870Y24001D01*
G01X33172Y24001D01*
G01X33172Y23215D01*
G01X29870Y23215D01*
G37*

%LPD*%
G36*
G01X33172Y23215D02*
G01X33172Y24001D01*
G01X35639Y24001D01*
G01X35648Y23215D01*
G01X33172Y23215D01*
G37*

%LPD*%
G36*
G01X25480Y25025D02*
G01X25448Y25057D01*
G01X25441Y25065D01*
G01X25433Y25072D01*
G01X25425Y25079D01*
G01X25417Y25086D01*
G01X25409Y25093D01*
G01X25401Y25100D01*
G01X25392Y25107D01*
G01X25384Y25113D01*
G01X25375Y25120D01*
G01X25366Y25126D01*
G01X25357Y25132D01*
G01X25348Y25138D01*
G01X25339Y25143D01*
G01X25330Y25149D01*
G01X25321Y25154D01*
G01X25312Y25160D01*
G01X25302Y25165D01*
G01X25293Y25169D01*
G01X25283Y25174D01*
G01X25273Y25179D01*
G01X25263Y25183D01*
G01X25254Y25187D01*
G01X25244Y25191D01*
G01X25234Y25195D01*
G01X25224Y25199D01*
G01X25213Y25202D01*
G01X25203Y25206D01*
G01X25193Y25209D01*
G01X25183Y25212D01*
G01X25172Y25214D01*
G01X25162Y25217D01*
G01X25151Y25219D01*
G01X25141Y25221D01*
G01X25130Y25223D01*
G01X25120Y25225D01*
G01X25109Y25227D01*
G01X25099Y25228D01*
G01X25088Y25229D01*
G01X25077Y25231D01*
G01X25067Y25231D01*
G01X25056Y25232D01*
G01X25045Y25233D01*
G01X25035Y25233D01*
G01X25024Y25233D01*
G01X29870Y25233D01*
G01X29870Y25025D01*
G01X25480Y25025D01*
G37*

%LPD*%
G36*
G01X29870Y25025D02*
G01X29870Y25776D01*
G01X32555Y25776D01*
G01X32555Y25025D01*
G01X29870Y25025D01*
G37*

%LPD*%
G36*
G01X30454Y24350D02*
G01X30460Y24350D01*
G01X30465Y24350D01*
G01X30470Y24350D01*
G01X30476Y24350D01*
G01X30481Y24351D01*
G01X30486Y24351D01*
G01X30491Y24352D01*
G01X30497Y24353D01*
G01X30502Y24353D01*
G01X30507Y24354D01*
G01X30512Y24355D01*
G01X30518Y24356D01*
G01X30523Y24358D01*
G01X30528Y24359D01*
G01X30533Y24360D01*
G01X30538Y24362D01*
G01X30543Y24363D01*
G01X30548Y24365D01*
G01X30553Y24366D01*
G01X30558Y24368D01*
G01X30563Y24370D01*
G01X30568Y24372D01*
G01X30573Y24374D01*
G01X30578Y24376D01*
G01X30583Y24378D01*
G01X30587Y24381D01*
G01X30592Y24383D01*
G01X30597Y24386D01*
G01X30602Y24388D01*
G01X30606Y24391D01*
G01X30611Y24394D01*
G01X30615Y24396D01*
G01X30620Y24399D01*
G01X30624Y24402D01*
G01X30628Y24405D01*
G01X30633Y24408D01*
G01X30637Y24412D01*
G01X30641Y24415D01*
G01X30645Y24418D01*
G01X30649Y24422D01*
G01X30653Y24425D01*
G01X30657Y24429D01*
G01X30661Y24432D01*
G01X30665Y24436D01*
G01X30669Y24440D01*
G01X30672Y24443D01*
G01X30676Y24447D01*
G01X30680Y24451D01*
G01X30683Y24455D01*
G01X30686Y24459D01*
G01X30690Y24463D01*
G01X30693Y24468D01*
G01X30696Y24472D01*
G01X30699Y24476D01*
G01X30702Y24481D01*
G01X30705Y24485D01*
G01X30708Y24489D01*
G01X30711Y24494D01*
G01X30714Y24498D01*
G01X30716Y24503D01*
G01X30719Y24508D01*
G01X30721Y24512D01*
G01X30724Y24517D01*
G01X30726Y24522D01*
G01X30728Y24527D01*
G01X30730Y24532D01*
G01X30733Y24536D01*
G01X30734Y24541D01*
G01X30736Y24546D01*
G01X30738Y24551D01*
G01X30740Y24556D01*
G01X30741Y24561D01*
G01X30743Y24566D01*
G01X30744Y24572D01*
G01X30746Y24577D01*
G01X30747Y24582D01*
G01X30748Y24587D01*
G01X30749Y24592D01*
G01X30750Y24597D01*
G01X30751Y24603D01*
G01X30752Y24608D01*
G01X30753Y24613D01*
G01X30753Y24618D01*
G01X30754Y24624D01*
G01X30754Y24629D01*
G01X30754Y24634D01*
G01X30755Y24640D01*
G01X30755Y24645D01*
G01X30755Y24650D01*
G01X30755Y25025D01*
G01X32555Y25025D01*
G01X32555Y24350D01*
G01X30454Y24350D01*
G37*

%LPD*%
G36*
G01X23266Y25233D02*
G01X23266Y25776D01*
G01X29870Y25776D01*
G01X29870Y25233D01*
G01X23266Y25233D01*
G37*

%LPD*%
G36*
G01X28955Y25776D02*
G01X28955Y26154D01*
G01X29870Y26154D01*
G01X29870Y25776D01*
G01X28955Y25776D01*
G37*

%LPD*%
G36*
G01X29870Y25776D02*
G01X29870Y26154D01*
G01X29955Y26154D01*
G01X29955Y25776D01*
G01X29870Y25776D01*
G37*

%LPD*%
G36*
G01X30755Y25776D02*
G01X30755Y26000D01*
G01X32555Y26000D01*
G01X32555Y25776D01*
G01X30755Y25776D01*
G37*

%LPD*%
G36*
G01X19964Y25512D02*
G01X19964Y25993D01*
G01X23266Y25993D01*
G01X23266Y25512D01*
G01X19964Y25512D01*
G37*

%LPD*%
G36*
G01X22392Y25233D02*
G01X22392Y25238D01*
G01X22392Y25243D01*
G01X22391Y25249D01*
G01X22390Y25254D01*
G01X22389Y25259D01*
G01X22389Y25264D01*
G01X22388Y25270D01*
G01X22386Y25275D01*
G01X22385Y25280D01*
G01X22384Y25285D01*
G01X22383Y25290D01*
G01X22381Y25295D01*
G01X22380Y25301D01*
G01X22378Y25306D01*
G01X22376Y25311D01*
G01X22375Y25316D01*
G01X22373Y25321D01*
G01X22371Y25325D01*
G01X22369Y25330D01*
G01X22367Y25335D01*
G01X22364Y25340D01*
G01X22362Y25345D01*
G01X22360Y25350D01*
G01X22357Y25354D01*
G01X22355Y25359D01*
G01X22352Y25363D01*
G01X22349Y25368D01*
G01X22346Y25372D01*
G01X22344Y25377D01*
G01X22341Y25381D01*
G01X22338Y25386D01*
G01X22334Y25390D01*
G01X22331Y25394D01*
G01X22328Y25398D01*
G01X22325Y25403D01*
G01X22321Y25407D01*
G01X22318Y25411D01*
G01X22314Y25415D01*
G01X22311Y25418D01*
G01X22307Y25422D01*
G01X22303Y25426D01*
G01X22299Y25430D01*
G01X22296Y25433D01*
G01X22292Y25437D01*
G01X22288Y25440D01*
G01X22284Y25444D01*
G01X22279Y25447D01*
G01X22275Y25450D01*
G01X22271Y25453D01*
G01X22267Y25457D01*
G01X22262Y25460D01*
G01X22258Y25463D01*
G01X22253Y25465D01*
G01X22249Y25468D01*
G01X22244Y25471D01*
G01X22240Y25474D01*
G01X22235Y25476D01*
G01X22230Y25479D01*
G01X22226Y25481D01*
G01X22221Y25483D01*
G01X22216Y25486D01*
G01X22211Y25488D01*
G01X22206Y25490D01*
G01X22202Y25492D01*
G01X22197Y25494D01*
G01X22192Y25495D01*
G01X22187Y25497D01*
G01X22181Y25499D01*
G01X22176Y25500D01*
G01X22171Y25502D01*
G01X22166Y25503D01*
G01X22161Y25504D01*
G01X22156Y25505D01*
G01X22151Y25506D01*
G01X22145Y25507D01*
G01X22140Y25508D01*
G01X22135Y25509D01*
G01X22130Y25510D01*
G01X22124Y25510D01*
G01X22119Y25511D01*
G01X22114Y25511D01*
G01X22109Y25512D01*
G01X22103Y25512D01*
G01X22098Y25512D01*
G01X22093Y25512D01*
G01X23266Y25512D01*
G01X23266Y25233D01*
G01X22392Y25233D01*
G37*

%LPD*%
G36*
G01X23266Y25776D02*
G01X23266Y26517D01*
G01X28155Y26517D01*
G01X28154Y26155D01*
G01X28155Y26155D01*
G01X28155Y26151D01*
G01X28155Y25776D01*
G01X23266Y25776D01*
G37*

%LPD*%
G36*
G01X28955Y26154D02*
G01X28955Y26154D01*
G01X29870Y26154D01*
G01X28955Y26154D01*
G37*

%LPD*%
G36*
G01X30755Y26000D02*
G01X30755Y26002D01*
G01X31316Y26002D01*
G01X31330Y26001D01*
G01X31343Y26001D01*
G01X31356Y26000D01*
G01X30755Y26000D01*
G37*

%LPD*%
G36*
G01X31356Y26000D02*
G01X31369Y26001D01*
G01X31383Y26001D01*
G01X31396Y26002D01*
G01X32555Y26002D01*
G01X32555Y26000D01*
G01X31356Y26000D01*
G37*

%LPD*%
G36*
G01X16662Y25482D02*
G01X16662Y25620D01*
G01X19964Y25620D01*
G01X19964Y25482D01*
G01X16662Y25482D01*
G37*

%LPD*%
G36*
G01X18991Y25620D02*
G01X18997Y25620D01*
G01X19002Y25620D01*
G01X19007Y25620D01*
G01X19013Y25620D01*
G01X19018Y25621D01*
G01X19023Y25621D01*
G01X19028Y25622D01*
G01X19034Y25623D01*
G01X19039Y25623D01*
G01X19044Y25624D01*
G01X19049Y25625D01*
G01X19055Y25626D01*
G01X19060Y25628D01*
G01X19065Y25629D01*
G01X19070Y25630D01*
G01X19075Y25632D01*
G01X19080Y25633D01*
G01X19085Y25635D01*
G01X19090Y25636D01*
G01X19095Y25638D01*
G01X19100Y25640D01*
G01X19105Y25642D01*
G01X19110Y25644D01*
G01X19115Y25646D01*
G01X19120Y25648D01*
G01X19124Y25651D01*
G01X19129Y25653D01*
G01X19134Y25656D01*
G01X19139Y25658D01*
G01X19143Y25661D01*
G01X19148Y25664D01*
G01X19152Y25666D01*
G01X19157Y25669D01*
G01X19161Y25672D01*
G01X19165Y25675D01*
G01X19170Y25678D01*
G01X19174Y25682D01*
G01X19178Y25685D01*
G01X19182Y25688D01*
G01X19186Y25692D01*
G01X19190Y25695D01*
G01X19194Y25699D01*
G01X19198Y25702D01*
G01X19202Y25706D01*
G01X19206Y25710D01*
G01X19209Y25713D01*
G01X19213Y25717D01*
G01X19217Y25721D01*
G01X19220Y25725D01*
G01X19223Y25729D01*
G01X19227Y25733D01*
G01X19230Y25738D01*
G01X19233Y25742D01*
G01X19236Y25746D01*
G01X19239Y25751D01*
G01X19242Y25755D01*
G01X19245Y25759D01*
G01X19248Y25764D01*
G01X19251Y25768D01*
G01X19253Y25773D01*
G01X19256Y25778D01*
G01X19258Y25782D01*
G01X19261Y25787D01*
G01X19263Y25792D01*
G01X19265Y25797D01*
G01X19267Y25802D01*
G01X19270Y25806D01*
G01X19271Y25811D01*
G01X19273Y25816D01*
G01X19275Y25821D01*
G01X19277Y25826D01*
G01X19278Y25831D01*
G01X19280Y25836D01*
G01X19281Y25842D01*
G01X19283Y25847D01*
G01X19284Y25852D01*
G01X19285Y25857D01*
G01X19286Y25862D01*
G01X19287Y25867D01*
G01X19288Y25873D01*
G01X19289Y25878D01*
G01X19290Y25883D01*
G01X19290Y25888D01*
G01X19291Y25894D01*
G01X19291Y25899D01*
G01X19291Y25904D01*
G01X19292Y25910D01*
G01X19292Y25915D01*
G01X19292Y25920D01*
G01X19292Y26210D01*
G01X19964Y26210D01*
G01X19964Y25620D01*
G01X18991Y25620D01*
G37*

%LPD*%
G36*
G01X19993Y25462D02*
G01X19988Y25464D01*
G01X19982Y25466D01*
G01X19976Y25467D01*
G01X19970Y25469D01*
G01X19964Y25471D01*
G01X19964Y25512D01*
G01X20625Y25512D01*
G01X20619Y25512D01*
G01X20614Y25512D01*
G01X20609Y25512D01*
G01X20603Y25511D01*
G01X20598Y25511D01*
G01X20593Y25510D01*
G01X20587Y25510D01*
G01X20582Y25509D01*
G01X20577Y25508D01*
G01X20571Y25507D01*
G01X20566Y25506D01*
G01X20561Y25505D01*
G01X20556Y25504D01*
G01X20551Y25503D01*
G01X20545Y25501D01*
G01X20540Y25500D01*
G01X20535Y25498D01*
G01X20530Y25497D01*
G01X20525Y25495D01*
G01X20520Y25493D01*
G01X20515Y25491D01*
G01X20510Y25489D01*
G01X20505Y25487D01*
G01X20500Y25485D01*
G01X20495Y25483D01*
G01X20491Y25480D01*
G01X20486Y25478D01*
G01X20481Y25476D01*
G01X20476Y25473D01*
G01X20472Y25470D01*
G01X20467Y25468D01*
G01X20463Y25465D01*
G01X20458Y25462D01*
G01X19993Y25462D01*
G37*

%LPD*%
G36*
G01X19964Y25993D02*
G01X19964Y26393D01*
G01X21553Y26393D01*
G01X21553Y26294D01*
G01X21553Y26288D01*
G01X21554Y26283D01*
G01X21554Y26278D01*
G01X21554Y26273D01*
G01X21555Y26267D01*
G01X21555Y26262D01*
G01X21556Y26257D01*
G01X21556Y26252D01*
G01X21557Y26247D01*
G01X21558Y26241D01*
G01X21559Y26236D01*
G01X21560Y26231D01*
G01X21561Y26226D01*
G01X21562Y26221D01*
G01X21564Y26216D01*
G01X21565Y26211D01*
G01X21567Y26206D01*
G01X21568Y26201D01*
G01X21570Y26196D01*
G01X21572Y26191D01*
G01X21573Y26186D01*
G01X21575Y26181D01*
G01X21577Y26176D01*
G01X21579Y26171D01*
G01X21582Y26167D01*
G01X21584Y26162D01*
G01X21586Y26157D01*
G01X21589Y26153D01*
G01X21591Y26148D01*
G01X21594Y26143D01*
G01X21596Y26139D01*
G01X21599Y26134D01*
G01X21602Y26130D01*
G01X21605Y26126D01*
G01X21608Y26121D01*
G01X21611Y26117D01*
G01X21614Y26113D01*
G01X21617Y26109D01*
G01X21620Y26104D01*
G01X21624Y26100D01*
G01X21627Y26096D01*
G01X21631Y26093D01*
G01X21634Y26089D01*
G01X21638Y26085D01*
G01X21641Y26081D01*
G01X21645Y26077D01*
G01X21649Y26074D01*
G01X21653Y26070D01*
G01X21657Y26067D01*
G01X21661Y26063D01*
G01X21665Y26060D01*
G01X21669Y26057D01*
G01X21673Y26054D01*
G01X21677Y26050D01*
G01X21682Y26047D01*
G01X21686Y26044D01*
G01X21690Y26042D01*
G01X21695Y26039D01*
G01X21699Y26036D01*
G01X21704Y26033D01*
G01X21708Y26031D01*
G01X21713Y26028D01*
G01X21718Y26026D01*
G01X21722Y26023D01*
G01X21727Y26021D01*
G01X21732Y26019D01*
G01X21737Y26017D01*
G01X21741Y26015D01*
G01X21746Y26013D01*
G01X21751Y26011D01*
G01X21756Y26009D01*
G01X21761Y26008D01*
G01X21766Y26006D01*
G01X21771Y26005D01*
G01X21776Y26003D01*
G01X21781Y26002D01*
G01X21786Y26001D01*
G01X21791Y26000D01*
G01X21797Y25999D01*
G01X21802Y25998D01*
G01X21807Y25997D01*
G01X21812Y25996D01*
G01X21817Y25995D01*
G01X21823Y25995D01*
G01X21828Y25994D01*
G01X21833Y25994D01*
G01X21838Y25993D01*
G01X21843Y25993D01*
G01X21849Y25993D01*
G01X21854Y25993D01*
G01X19964Y25993D01*
G37*

%LPD*%
G36*
G01X21954Y25993D02*
G01X21954Y26393D01*
G01X22153Y26393D01*
G01X22153Y25993D01*
G01X21954Y25993D01*
G37*

%LPD*%
G36*
G01X22253Y25993D02*
G01X22253Y25993D01*
G01X22258Y25993D01*
G01X22263Y25993D01*
G01X22269Y25993D01*
G01X22274Y25994D01*
G01X22279Y25994D01*
G01X22284Y25995D01*
G01X22290Y25995D01*
G01X22295Y25996D01*
G01X22300Y25997D01*
G01X22305Y25998D01*
G01X22311Y25999D01*
G01X22316Y26000D01*
G01X22321Y26001D01*
G01X22326Y26002D01*
G01X22331Y26004D01*
G01X22336Y26005D01*
G01X22342Y26006D01*
G01X22347Y26008D01*
G01X22352Y26010D01*
G01X22357Y26012D01*
G01X22362Y26013D01*
G01X22366Y26015D01*
G01X22371Y26017D01*
G01X22376Y26020D01*
G01X22381Y26022D01*
G01X22386Y26024D01*
G01X22391Y26027D01*
G01X22395Y26029D01*
G01X22400Y26032D01*
G01X22405Y26034D01*
G01X22409Y26037D01*
G01X22414Y26040D01*
G01X22418Y26043D01*
G01X22422Y26046D01*
G01X22427Y26049D01*
G01X22431Y26052D01*
G01X22435Y26055D01*
G01X22439Y26058D01*
G01X22444Y26061D01*
G01X22448Y26065D01*
G01X22452Y26068D01*
G01X22456Y26072D01*
G01X22460Y26076D01*
G01X22463Y26079D01*
G01X22467Y26083D01*
G01X22471Y26087D01*
G01X22474Y26091D01*
G01X22478Y26095D01*
G01X22481Y26099D01*
G01X22485Y26103D01*
G01X22488Y26107D01*
G01X22491Y26111D01*
G01X22495Y26115D01*
G01X22498Y26120D01*
G01X22501Y26124D01*
G01X22504Y26128D01*
G01X22507Y26133D01*
G01X22509Y26137D01*
G01X22512Y26142D01*
G01X22515Y26146D01*
G01X22517Y26151D01*
G01X22520Y26156D01*
G01X22522Y26160D01*
G01X22524Y26165D01*
G01X22527Y26170D01*
G01X22529Y26175D01*
G01X22531Y26180D01*
G01X22533Y26185D01*
G01X22535Y26190D01*
G01X22536Y26195D01*
G01X22538Y26200D01*
G01X22540Y26205D01*
G01X22541Y26210D01*
G01X22543Y26215D01*
G01X22544Y26220D01*
G01X22545Y26225D01*
G01X22547Y26230D01*
G01X22548Y26236D01*
G01X22549Y26241D01*
G01X22549Y26246D01*
G01X22550Y26251D01*
G01X22551Y26257D01*
G01X22552Y26262D01*
G01X22552Y26267D01*
G01X22552Y26272D01*
G01X22553Y26278D01*
G01X22553Y26283D01*
G01X22553Y26288D01*
G01X22553Y26294D01*
G01X22553Y26393D01*
G01X23266Y26393D01*
G01X23266Y25993D01*
G01X22253Y25993D01*
G37*

%LPD*%
G36*
G01X19964Y26393D02*
G01X19964Y26593D01*
G01X23266Y26593D01*
G01X23266Y26393D01*
G01X19964Y26393D01*
G37*

%LPD*%
G36*
G01X23266Y26517D02*
G01X23266Y27088D01*
G01X26568Y27088D01*
G01X26568Y26517D01*
G01X23266Y26517D01*
G37*

%LPD*%
G36*
G01X26568Y26517D02*
G01X26568Y26902D01*
G01X28155Y26902D01*
G01X28155Y26517D01*
G01X26568Y26517D01*
G37*

%LPD*%
G36*
G01X31955Y26002D02*
G01X31955Y26563D01*
G01X31956Y26576D01*
G01X31956Y26588D01*
G01X31957Y26601D01*
G01X31957Y26900D01*
G01X32555Y26900D01*
G01X32555Y26002D01*
G01X31955Y26002D01*
G37*

%LPD*%
G36*
G01X16455Y25479D02*
G01X16455Y27082D01*
G01X16662Y27082D01*
G01X16662Y25479D01*
G01X16455Y25479D01*
G37*

%LPD*%
G36*
G01X16662Y25620D02*
G01X16662Y26210D01*
G01X17223Y26210D01*
G01X17223Y25920D01*
G01X17223Y25920D01*
G01X17223Y25915D01*
G01X17223Y25910D01*
G01X17223Y25904D01*
G01X17223Y25899D01*
G01X17224Y25894D01*
G01X17224Y25888D01*
G01X17225Y25883D01*
G01X17226Y25878D01*
G01X17227Y25873D01*
G01X17227Y25867D01*
G01X17228Y25862D01*
G01X17229Y25857D01*
G01X17231Y25852D01*
G01X17232Y25847D01*
G01X17233Y25842D01*
G01X17235Y25836D01*
G01X17236Y25831D01*
G01X17238Y25826D01*
G01X17239Y25821D01*
G01X17241Y25816D01*
G01X17243Y25811D01*
G01X17245Y25806D01*
G01X17247Y25802D01*
G01X17249Y25797D01*
G01X17252Y25792D01*
G01X17254Y25787D01*
G01X17256Y25782D01*
G01X17259Y25778D01*
G01X17261Y25773D01*
G01X17264Y25768D01*
G01X17267Y25764D01*
G01X17269Y25759D01*
G01X17272Y25755D01*
G01X17275Y25751D01*
G01X17278Y25746D01*
G01X17281Y25742D01*
G01X17285Y25738D01*
G01X17288Y25733D01*
G01X17291Y25729D01*
G01X17295Y25725D01*
G01X17298Y25721D01*
G01X17302Y25717D01*
G01X17305Y25713D01*
G01X17309Y25710D01*
G01X17313Y25706D01*
G01X17316Y25702D01*
G01X17320Y25699D01*
G01X17324Y25695D01*
G01X17328Y25692D01*
G01X17332Y25688D01*
G01X17336Y25685D01*
G01X17341Y25682D01*
G01X17345Y25678D01*
G01X17349Y25675D01*
G01X17354Y25672D01*
G01X17358Y25669D01*
G01X17362Y25666D01*
G01X17367Y25664D01*
G01X17371Y25661D01*
G01X17376Y25658D01*
G01X17381Y25656D01*
G01X17385Y25653D01*
G01X17390Y25651D01*
G01X17395Y25648D01*
G01X17400Y25646D01*
G01X17405Y25644D01*
G01X17409Y25642D01*
G01X17414Y25640D01*
G01X17419Y25638D01*
G01X17424Y25636D01*
G01X17429Y25635D01*
G01X17434Y25633D01*
G01X17440Y25632D01*
G01X17445Y25630D01*
G01X17450Y25629D01*
G01X17455Y25628D01*
G01X17460Y25626D01*
G01X17465Y25625D01*
G01X17470Y25624D01*
G01X17476Y25623D01*
G01X17481Y25623D01*
G01X17486Y25622D01*
G01X17491Y25621D01*
G01X17497Y25621D01*
G01X17502Y25620D01*
G01X17507Y25620D01*
G01X17513Y25620D01*
G01X17518Y25620D01*
G01X17523Y25620D01*
G01X16662Y25620D01*
G37*

%LPD*%
G36*
G01X16662Y25479D02*
G01X16662Y25482D01*
G01X17715Y25482D01*
G01X17715Y25479D01*
G01X16662Y25479D01*
G37*

%LPD*%
G36*
G01X17890Y25620D02*
G01X17890Y26210D01*
G01X18624Y26210D01*
G01X18624Y25620D01*
G01X17890Y25620D01*
G37*

%LPD*%
G36*
G01X18415Y25479D02*
G01X18415Y25482D01*
G01X19964Y25482D01*
G01X19964Y25479D01*
G01X18415Y25479D01*
G37*

%LPD*%
G36*
G01X16662Y26210D02*
G01X16662Y26789D01*
G01X19964Y26789D01*
G01X19964Y26210D01*
G01X16662Y26210D01*
G37*

%LPD*%
G36*
G01X19964Y25471D02*
G01X19964Y25471D01*
G01X19959Y25472D01*
G01X19953Y25473D01*
G01X19948Y25474D01*
G01X19942Y25475D01*
G01X19937Y25476D01*
G01X19932Y25477D01*
G01X19926Y25477D01*
G01X19921Y25478D01*
G01X19915Y25478D01*
G01X19910Y25479D01*
G01X19904Y25479D01*
G01X19899Y25479D01*
G01X19893Y25479D01*
G01X19964Y25479D01*
G01X19964Y25471D01*
G37*

%LPD*%
G36*
G01X19964Y26593D02*
G01X19964Y26993D01*
G01X21854Y26993D01*
G01X21849Y26993D01*
G01X21843Y26993D01*
G01X21838Y26992D01*
G01X21833Y26992D01*
G01X21828Y26992D01*
G01X21823Y26991D01*
G01X21817Y26991D01*
G01X21812Y26990D01*
G01X21807Y26989D01*
G01X21802Y26988D01*
G01X21797Y26987D01*
G01X21791Y26986D01*
G01X21786Y26985D01*
G01X21781Y26984D01*
G01X21776Y26983D01*
G01X21771Y26981D01*
G01X21766Y26980D01*
G01X21761Y26978D01*
G01X21756Y26976D01*
G01X21751Y26975D01*
G01X21746Y26973D01*
G01X21741Y26971D01*
G01X21737Y26969D01*
G01X21732Y26967D01*
G01X21727Y26965D01*
G01X21722Y26962D01*
G01X21718Y26960D01*
G01X21713Y26958D01*
G01X21708Y26955D01*
G01X21704Y26953D01*
G01X21699Y26950D01*
G01X21695Y26947D01*
G01X21690Y26944D01*
G01X21686Y26941D01*
G01X21682Y26939D01*
G01X21677Y26935D01*
G01X21673Y26932D01*
G01X21669Y26929D01*
G01X21665Y26926D01*
G01X21661Y26923D01*
G01X21657Y26919D01*
G01X21653Y26916D01*
G01X21649Y26912D01*
G01X21645Y26909D01*
G01X21641Y26905D01*
G01X21638Y26901D01*
G01X21634Y26897D01*
G01X21631Y26893D01*
G01X21627Y26890D01*
G01X21624Y26886D01*
G01X21620Y26881D01*
G01X21617Y26877D01*
G01X21614Y26873D01*
G01X21611Y26869D01*
G01X21608Y26865D01*
G01X21605Y26860D01*
G01X21602Y26856D01*
G01X21599Y26852D01*
G01X21596Y26847D01*
G01X21594Y26843D01*
G01X21591Y26838D01*
G01X21589Y26833D01*
G01X21586Y26829D01*
G01X21584Y26824D01*
G01X21582Y26819D01*
G01X21579Y26815D01*
G01X21577Y26810D01*
G01X21575Y26805D01*
G01X21573Y26800D01*
G01X21572Y26795D01*
G01X21570Y26790D01*
G01X21568Y26785D01*
G01X21567Y26780D01*
G01X21565Y26775D01*
G01X21564Y26770D01*
G01X21562Y26765D01*
G01X21561Y26760D01*
G01X21560Y26755D01*
G01X21559Y26750D01*
G01X21558Y26745D01*
G01X21557Y26739D01*
G01X21556Y26734D01*
G01X21556Y26729D01*
G01X21555Y26724D01*
G01X21555Y26719D01*
G01X21554Y26713D01*
G01X21554Y26708D01*
G01X21554Y26703D01*
G01X21553Y26698D01*
G01X21553Y26692D01*
G01X21553Y26593D01*
G01X19964Y26593D01*
G37*

%LPD*%
G36*
G01X21954Y26593D02*
G01X21954Y26993D01*
G01X22153Y26993D01*
G01X22153Y26593D01*
G01X21954Y26593D01*
G37*

%LPD*%
G36*
G01X22553Y26593D02*
G01X22553Y26692D01*
G01X22553Y26692D01*
G01X22553Y26698D01*
G01X22553Y26703D01*
G01X22553Y26708D01*
G01X22552Y26714D01*
G01X22552Y26719D01*
G01X22552Y26724D01*
G01X22551Y26729D01*
G01X22550Y26735D01*
G01X22549Y26740D01*
G01X22549Y26745D01*
G01X22548Y26750D01*
G01X22547Y26756D01*
G01X22545Y26761D01*
G01X22544Y26766D01*
G01X22543Y26771D01*
G01X22541Y26776D01*
G01X22540Y26781D01*
G01X22538Y26786D01*
G01X22536Y26791D01*
G01X22535Y26796D01*
G01X22533Y26801D01*
G01X22531Y26806D01*
G01X22529Y26811D01*
G01X22527Y26816D01*
G01X22524Y26821D01*
G01X22522Y26825D01*
G01X22520Y26830D01*
G01X22517Y26835D01*
G01X22515Y26840D01*
G01X22512Y26844D01*
G01X22509Y26849D01*
G01X22507Y26853D01*
G01X22504Y26858D01*
G01X22501Y26862D01*
G01X22498Y26866D01*
G01X22495Y26871D01*
G01X22491Y26875D01*
G01X22488Y26879D01*
G01X22485Y26883D01*
G01X22481Y26887D01*
G01X22478Y26891D01*
G01X22474Y26895D01*
G01X22471Y26899D01*
G01X22467Y26903D01*
G01X22463Y26907D01*
G01X22460Y26910D01*
G01X22456Y26914D01*
G01X22452Y26918D01*
G01X22448Y26921D01*
G01X22444Y26924D01*
G01X22439Y26928D01*
G01X22435Y26931D01*
G01X22431Y26934D01*
G01X22427Y26937D01*
G01X22422Y26940D01*
G01X22418Y26943D01*
G01X22414Y26946D01*
G01X22409Y26949D01*
G01X22405Y26952D01*
G01X22400Y26954D01*
G01X22395Y26957D01*
G01X22391Y26959D01*
G01X22386Y26962D01*
G01X22381Y26964D01*
G01X22376Y26966D01*
G01X22371Y26968D01*
G01X22366Y26970D01*
G01X22362Y26972D01*
G01X22357Y26974D01*
G01X22352Y26976D01*
G01X22347Y26978D01*
G01X22342Y26979D01*
G01X22336Y26981D01*
G01X22331Y26982D01*
G01X22326Y26984D01*
G01X22321Y26985D01*
G01X22316Y26986D01*
G01X22311Y26987D01*
G01X22305Y26988D01*
G01X22300Y26989D01*
G01X22295Y26990D01*
G01X22290Y26991D01*
G01X22284Y26991D01*
G01X22279Y26992D01*
G01X22274Y26992D01*
G01X22269Y26992D01*
G01X22263Y26993D01*
G01X22258Y26993D01*
G01X22253Y26993D01*
G01X23266Y26993D01*
G01X23266Y26593D01*
G01X22553Y26593D01*
G37*

%LPD*%
G36*
G01X19964Y26993D02*
G01X19964Y27082D01*
G01X23266Y27082D01*
G01X23266Y26993D01*
G01X19964Y26993D01*
G37*

%LPD*%
G36*
G01X23095Y27082D02*
G01X23095Y27469D01*
G01X23266Y27469D01*
G01X23266Y27082D01*
G01X23095Y27082D01*
G37*

%LPD*%
G36*
G01X23266Y27088D02*
G01X23266Y27469D01*
G01X25323Y27469D01*
G01X25323Y27388D01*
G01X25323Y27383D01*
G01X25323Y27378D01*
G01X25323Y27373D01*
G01X25324Y27367D01*
G01X25324Y27362D01*
G01X25324Y27357D01*
G01X25325Y27352D01*
G01X25326Y27346D01*
G01X25326Y27341D01*
G01X25327Y27336D01*
G01X25328Y27331D01*
G01X25329Y27326D01*
G01X25331Y27321D01*
G01X25332Y27316D01*
G01X25333Y27311D01*
G01X25334Y27305D01*
G01X25336Y27300D01*
G01X25338Y27295D01*
G01X25339Y27290D01*
G01X25341Y27286D01*
G01X25343Y27281D01*
G01X25345Y27276D01*
G01X25347Y27271D01*
G01X25349Y27266D01*
G01X25351Y27261D01*
G01X25353Y27257D01*
G01X25356Y27252D01*
G01X25358Y27247D01*
G01X25360Y27243D01*
G01X25363Y27238D01*
G01X25366Y27234D01*
G01X25368Y27229D01*
G01X25371Y27225D01*
G01X25374Y27220D01*
G01X25377Y27216D01*
G01X25380Y27212D01*
G01X25383Y27207D01*
G01X25387Y27203D01*
G01X25390Y27199D01*
G01X25393Y27195D01*
G01X25397Y27191D01*
G01X25400Y27187D01*
G01X25404Y27183D01*
G01X25407Y27180D01*
G01X25411Y27176D01*
G01X25415Y27172D01*
G01X25418Y27169D01*
G01X25422Y27165D01*
G01X25426Y27162D01*
G01X25430Y27158D01*
G01X25434Y27155D01*
G01X25438Y27152D01*
G01X25442Y27148D01*
G01X25447Y27145D01*
G01X25451Y27142D01*
G01X25455Y27139D01*
G01X25460Y27136D01*
G01X25464Y27133D01*
G01X25469Y27131D01*
G01X25473Y27128D01*
G01X25478Y27125D01*
G01X25482Y27123D01*
G01X25487Y27121D01*
G01X25492Y27118D01*
G01X25496Y27116D01*
G01X25501Y27114D01*
G01X25506Y27112D01*
G01X25511Y27110D01*
G01X25516Y27108D01*
G01X25521Y27106D01*
G01X25525Y27104D01*
G01X25530Y27103D01*
G01X25535Y27101D01*
G01X25540Y27099D01*
G01X25546Y27098D01*
G01X25551Y27097D01*
G01X25556Y27096D01*
G01X25561Y27094D01*
G01X25566Y27093D01*
G01X25571Y27092D01*
G01X25576Y27092D01*
G01X25581Y27091D01*
G01X25587Y27090D01*
G01X25592Y27089D01*
G01X25597Y27089D01*
G01X25602Y27089D01*
G01X25608Y27088D01*
G01X25613Y27088D01*
G01X25618Y27088D01*
G01X25623Y27088D01*
G01X23266Y27088D01*
G37*

%LPD*%
G36*
G01X25990Y27088D02*
G01X25990Y27679D01*
G01X26568Y27679D01*
G01X26568Y27088D01*
G01X25990Y27088D01*
G37*

%LPD*%
G36*
G01X26568Y27088D02*
G01X26568Y27679D01*
G01X26724Y27679D01*
G01X26724Y27088D01*
G01X26568Y27088D01*
G37*

%LPD*%
G36*
G01X26568Y26902D02*
G01X26568Y27088D01*
G01X28155Y27088D01*
G01X28155Y26951D01*
G01X28155Y26951D01*
G01X28155Y26946D01*
G01X28155Y26940D01*
G01X28155Y26935D01*
G01X28156Y26929D01*
G01X28156Y26924D01*
G01X28157Y26918D01*
G01X28157Y26913D01*
G01X28158Y26907D01*
G01X28159Y26902D01*
G01X26568Y26902D01*
G37*

%LPD*%
G36*
G01X16662Y26789D02*
G01X16662Y27082D01*
G01X17223Y27082D01*
G01X17223Y27078D01*
G01X17223Y26789D01*
G01X16662Y26789D01*
G37*

%LPD*%
G36*
G01X17715Y25478D02*
G01X17715Y25478D01*
G01X17709Y25478D01*
G01X17703Y25479D01*
G01X17697Y25479D01*
G01X17691Y25479D01*
G01X17715Y25479D01*
G01X17715Y25478D01*
G37*

%LPD*%
G36*
G01X18415Y25479D02*
G01X18415Y25479D01*
G01X18425Y25479D01*
G01X18415Y25479D01*
G37*

%LPD*%
G36*
G01X17890Y26789D02*
G01X17890Y27082D01*
G01X18624Y27082D01*
G01X18624Y26789D01*
G01X17890Y26789D01*
G37*

%LPD*%
G36*
G01X19292Y26789D02*
G01X19292Y27078D01*
G01X19292Y27078D01*
G01X19292Y27082D01*
G01X19964Y27082D01*
G01X19964Y26789D01*
G01X19292Y26789D01*
G37*

%LPD*%
G36*
G01X23095Y27469D02*
G01X23095Y27469D01*
G01X23102Y27469D01*
G01X23109Y27469D01*
G01X23095Y27469D01*
G37*

%LPD*%
G36*
G01X23398Y27469D02*
G01X23398Y28136D01*
G01X23977Y28136D01*
G01X23977Y27469D01*
G01X23398Y27469D01*
G37*

%LPD*%
G36*
G01X24267Y27469D02*
G01X24272Y27469D01*
G01X24277Y27469D01*
G01X24283Y27469D01*
G01X24288Y27470D01*
G01X24293Y27470D01*
G01X24299Y27470D01*
G01X24304Y27471D01*
G01X24309Y27472D01*
G01X24314Y27473D01*
G01X24319Y27473D01*
G01X24325Y27474D01*
G01X24330Y27475D01*
G01X24335Y27477D01*
G01X24340Y27478D01*
G01X24345Y27479D01*
G01X24350Y27481D01*
G01X24355Y27482D01*
G01X24360Y27484D01*
G01X24365Y27485D01*
G01X24370Y27487D01*
G01X24375Y27489D01*
G01X24380Y27491D01*
G01X24385Y27493D01*
G01X24390Y27495D01*
G01X24395Y27497D01*
G01X24399Y27500D01*
G01X24404Y27502D01*
G01X24409Y27504D01*
G01X24413Y27507D01*
G01X24418Y27510D01*
G01X24423Y27512D01*
G01X24427Y27515D01*
G01X24431Y27518D01*
G01X24436Y27521D01*
G01X24440Y27524D01*
G01X24444Y27527D01*
G01X24449Y27530D01*
G01X24453Y27533D01*
G01X24457Y27537D01*
G01X24461Y27540D01*
G01X24465Y27543D01*
G01X24469Y27547D01*
G01X24473Y27550D01*
G01X24477Y27554D01*
G01X24480Y27558D01*
G01X24484Y27562D01*
G01X24488Y27565D01*
G01X24491Y27569D01*
G01X24495Y27573D01*
G01X24498Y27577D01*
G01X24501Y27581D01*
G01X24505Y27586D01*
G01X24508Y27590D01*
G01X24511Y27594D01*
G01X24514Y27598D01*
G01X24517Y27603D01*
G01X24520Y27607D01*
G01X24523Y27612D01*
G01X24525Y27616D01*
G01X24528Y27621D01*
G01X24531Y27625D01*
G01X24533Y27630D01*
G01X24536Y27635D01*
G01X24538Y27639D01*
G01X24540Y27644D01*
G01X24542Y27649D01*
G01X24544Y27654D01*
G01X24546Y27659D01*
G01X24548Y27664D01*
G01X24550Y27669D01*
G01X24552Y27674D01*
G01X24553Y27679D01*
G01X25323Y27679D01*
G01X25323Y27469D01*
G01X24267Y27469D01*
G37*

%LPD*%
G36*
G01X24553Y27679D02*
G01X24555Y27684D01*
G01X24556Y27689D01*
G01X24558Y27694D01*
G01X24559Y27699D01*
G01X24560Y27705D01*
G01X24562Y27710D01*
G01X24563Y27715D01*
G01X24563Y27721D01*
G01X24564Y27726D01*
G01X24565Y27731D01*
G01X24566Y27737D01*
G01X24566Y27742D01*
G01X24567Y27748D01*
G01X24567Y27753D01*
G01X24567Y27758D01*
G01X24567Y27764D01*
G01X24567Y27769D01*
G01X24567Y28136D01*
G01X26568Y28136D01*
G01X26568Y27679D01*
G01X24553Y27679D01*
G37*

%LPD*%
G36*
G01X26568Y27679D02*
G01X26568Y28259D01*
G01X28155Y28259D01*
G01X28155Y27679D01*
G01X26568Y27679D01*
G37*

%LPD*%
G36*
G01X27091Y27088D02*
G01X27097Y27088D01*
G01X27102Y27088D01*
G01X27107Y27088D01*
G01X27112Y27089D01*
G01X27118Y27089D01*
G01X27123Y27089D01*
G01X27128Y27090D01*
G01X27133Y27091D01*
G01X27138Y27092D01*
G01X27144Y27092D01*
G01X27149Y27093D01*
G01X27154Y27094D01*
G01X27159Y27096D01*
G01X27164Y27097D01*
G01X27169Y27098D01*
G01X27174Y27099D01*
G01X27179Y27101D01*
G01X27184Y27103D01*
G01X27189Y27104D01*
G01X27194Y27106D01*
G01X27199Y27108D01*
G01X27204Y27110D01*
G01X27209Y27112D01*
G01X27214Y27114D01*
G01X27218Y27116D01*
G01X27223Y27118D01*
G01X27228Y27121D01*
G01X27233Y27123D01*
G01X27237Y27125D01*
G01X27242Y27128D01*
G01X27246Y27131D01*
G01X27251Y27133D01*
G01X27255Y27136D01*
G01X27259Y27139D01*
G01X27264Y27142D01*
G01X27268Y27145D01*
G01X27272Y27148D01*
G01X27276Y27152D01*
G01X27281Y27155D01*
G01X27285Y27158D01*
G01X27289Y27162D01*
G01X27293Y27165D01*
G01X27296Y27169D01*
G01X27300Y27172D01*
G01X27304Y27176D01*
G01X27308Y27180D01*
G01X27311Y27183D01*
G01X27315Y27187D01*
G01X27318Y27191D01*
G01X27322Y27195D01*
G01X27325Y27199D01*
G01X27328Y27203D01*
G01X27331Y27207D01*
G01X27335Y27212D01*
G01X27338Y27216D01*
G01X27341Y27220D01*
G01X27343Y27225D01*
G01X27346Y27229D01*
G01X27349Y27234D01*
G01X27352Y27238D01*
G01X27354Y27243D01*
G01X27357Y27247D01*
G01X27359Y27252D01*
G01X27362Y27257D01*
G01X27364Y27261D01*
G01X27366Y27266D01*
G01X27368Y27271D01*
G01X27370Y27276D01*
G01X27372Y27281D01*
G01X27374Y27286D01*
G01X27376Y27290D01*
G01X27377Y27295D01*
G01X27379Y27300D01*
G01X27380Y27305D01*
G01X27382Y27311D01*
G01X27383Y27316D01*
G01X27384Y27321D01*
G01X27385Y27326D01*
G01X27386Y27331D01*
G01X27387Y27336D01*
G01X27388Y27341D01*
G01X27389Y27346D01*
G01X27390Y27352D01*
G01X27390Y27357D01*
G01X27391Y27362D01*
G01X27391Y27367D01*
G01X27392Y27373D01*
G01X27392Y27378D01*
G01X27392Y27383D01*
G01X27392Y27388D01*
G01X27392Y27679D01*
G01X28155Y27679D01*
G01X28155Y27088D01*
G01X27091Y27088D01*
G37*

%LPD*%
G36*
G01X23266Y28136D02*
G01X23266Y28259D01*
G01X26568Y28259D01*
G01X26568Y28136D01*
G01X23266Y28136D01*
G37*

%LPD*%
G36*
G01X25990Y28259D02*
G01X25990Y28850D01*
G01X26568Y28850D01*
G01X26568Y28259D01*
G01X25990Y28259D01*
G37*

%LPD*%
G36*
G01X26568Y28259D02*
G01X26568Y28850D01*
G01X26724Y28850D01*
G01X26724Y28259D01*
G01X26568Y28259D01*
G37*

%LPD*%
G36*
G01X27392Y28259D02*
G01X27392Y28502D01*
G01X28159Y28502D01*
G01X28159Y28502D01*
G01X28158Y28496D01*
G01X28158Y28490D01*
G01X28157Y28485D01*
G01X28156Y28479D01*
G01X28156Y28473D01*
G01X28155Y28467D01*
G01X28155Y28462D01*
G01X28155Y28456D01*
G01X28155Y28450D01*
G01X28155Y28259D01*
G01X27392Y28259D01*
G37*

%LPD*%
G36*
G01X23095Y28136D02*
G01X23095Y28870D01*
G01X23266Y28870D01*
G01X23266Y28136D01*
G01X23095Y28136D01*
G37*

%LPD*%
G36*
G01X23266Y28259D02*
G01X23266Y28850D01*
G01X25623Y28850D01*
G01X25618Y28850D01*
G01X25613Y28849D01*
G01X25608Y28849D01*
G01X25602Y28849D01*
G01X25597Y28848D01*
G01X25592Y28848D01*
G01X25587Y28847D01*
G01X25581Y28847D01*
G01X25576Y28846D01*
G01X25571Y28845D01*
G01X25566Y28844D01*
G01X25561Y28843D01*
G01X25556Y28842D01*
G01X25551Y28841D01*
G01X25546Y28839D01*
G01X25540Y28838D01*
G01X25535Y28836D01*
G01X25530Y28835D01*
G01X25525Y28833D01*
G01X25521Y28831D01*
G01X25516Y28830D01*
G01X25511Y28828D01*
G01X25506Y28826D01*
G01X25501Y28824D01*
G01X25496Y28821D01*
G01X25492Y28819D01*
G01X25487Y28817D01*
G01X25482Y28814D01*
G01X25478Y28812D01*
G01X25473Y28809D01*
G01X25469Y28807D01*
G01X25464Y28804D01*
G01X25460Y28801D01*
G01X25455Y28798D01*
G01X25451Y28795D01*
G01X25447Y28792D01*
G01X25442Y28789D01*
G01X25438Y28786D01*
G01X25434Y28783D01*
G01X25430Y28779D01*
G01X25426Y28776D01*
G01X25422Y28772D01*
G01X25418Y28769D01*
G01X25415Y28765D01*
G01X25411Y28762D01*
G01X25407Y28758D01*
G01X25404Y28754D01*
G01X25400Y28750D01*
G01X25397Y28746D01*
G01X25393Y28742D01*
G01X25390Y28738D01*
G01X25387Y28734D01*
G01X25383Y28730D01*
G01X25380Y28726D01*
G01X25377Y28721D01*
G01X25374Y28717D01*
G01X25371Y28713D01*
G01X25368Y28708D01*
G01X25366Y28704D01*
G01X25363Y28699D01*
G01X25360Y28695D01*
G01X25358Y28690D01*
G01X25356Y28686D01*
G01X25353Y28681D01*
G01X25351Y28676D01*
G01X25349Y28671D01*
G01X25347Y28667D01*
G01X25345Y28662D01*
G01X25343Y28657D01*
G01X25341Y28652D01*
G01X25339Y28647D01*
G01X25338Y28642D01*
G01X25336Y28637D01*
G01X25334Y28632D01*
G01X25333Y28627D01*
G01X25332Y28622D01*
G01X25331Y28617D01*
G01X25329Y28612D01*
G01X25328Y28606D01*
G01X25327Y28601D01*
G01X25326Y28596D01*
G01X25326Y28591D01*
G01X25325Y28586D01*
G01X25324Y28581D01*
G01X25324Y28575D01*
G01X25324Y28570D01*
G01X25323Y28565D01*
G01X25323Y28560D01*
G01X25323Y28554D01*
G01X25323Y28549D01*
G01X25323Y28259D01*
G01X23266Y28259D01*
G37*

%LPD*%
G36*
G01X23266Y28850D02*
G01X23266Y28870D01*
G01X26568Y28870D01*
G01X26568Y28850D01*
G01X23266Y28850D01*
G37*

%LPD*%
G36*
G01X26568Y28850D02*
G01X26568Y29102D01*
G01X28155Y29102D01*
G01X28155Y28850D01*
G01X26568Y28850D01*
G37*

%LPD*%
G36*
G01X27392Y28502D02*
G01X27392Y28549D01*
G01X27392Y28554D01*
G01X27392Y28560D01*
G01X27392Y28565D01*
G01X27391Y28570D01*
G01X27391Y28575D01*
G01X27390Y28581D01*
G01X27390Y28586D01*
G01X27389Y28591D01*
G01X27388Y28596D01*
G01X27387Y28601D01*
G01X27386Y28606D01*
G01X27385Y28612D01*
G01X27384Y28617D01*
G01X27383Y28622D01*
G01X27382Y28627D01*
G01X27380Y28632D01*
G01X27379Y28637D01*
G01X27377Y28642D01*
G01X27376Y28647D01*
G01X27374Y28652D01*
G01X27372Y28657D01*
G01X27370Y28662D01*
G01X27368Y28667D01*
G01X27366Y28671D01*
G01X27364Y28676D01*
G01X27362Y28681D01*
G01X27359Y28686D01*
G01X27357Y28690D01*
G01X27354Y28695D01*
G01X27352Y28699D01*
G01X27349Y28704D01*
G01X27346Y28708D01*
G01X27343Y28713D01*
G01X27341Y28717D01*
G01X27338Y28721D01*
G01X27335Y28726D01*
G01X27331Y28730D01*
G01X27328Y28734D01*
G01X27325Y28738D01*
G01X27322Y28742D01*
G01X27318Y28746D01*
G01X27315Y28750D01*
G01X27311Y28754D01*
G01X27308Y28758D01*
G01X27304Y28762D01*
G01X27300Y28765D01*
G01X27296Y28769D01*
G01X27293Y28772D01*
G01X27289Y28776D01*
G01X27285Y28779D01*
G01X27281Y28783D01*
G01X27276Y28786D01*
G01X27272Y28789D01*
G01X27268Y28792D01*
G01X27264Y28795D01*
G01X27259Y28798D01*
G01X27255Y28801D01*
G01X27251Y28804D01*
G01X27246Y28807D01*
G01X27242Y28809D01*
G01X27237Y28812D01*
G01X27233Y28814D01*
G01X27228Y28817D01*
G01X27223Y28819D01*
G01X27218Y28821D01*
G01X27214Y28824D01*
G01X27209Y28826D01*
G01X27204Y28828D01*
G01X27199Y28830D01*
G01X27194Y28831D01*
G01X27189Y28833D01*
G01X27184Y28835D01*
G01X27179Y28836D01*
G01X27174Y28838D01*
G01X27169Y28839D01*
G01X27164Y28841D01*
G01X27159Y28842D01*
G01X27154Y28843D01*
G01X27149Y28844D01*
G01X27144Y28845D01*
G01X27138Y28846D01*
G01X27133Y28847D01*
G01X27128Y28847D01*
G01X27123Y28848D01*
G01X27118Y28848D01*
G01X27112Y28849D01*
G01X27107Y28849D01*
G01X27102Y28849D01*
G01X27097Y28850D01*
G01X27091Y28850D01*
G01X28155Y28850D01*
G01X28155Y28502D01*
G01X27392Y28502D01*
G37*

%LPD*%
G36*
G01X23398Y28870D02*
G01X23398Y29242D01*
G01X23977Y29242D01*
G01X23977Y28870D01*
G01X23398Y28870D01*
G37*

%LPD*%
G36*
G01X24567Y28870D02*
G01X24567Y29102D01*
G01X26568Y29102D01*
G01X26568Y28870D01*
G01X24567Y28870D01*
G37*

%LPD*%
G36*
G01X24567Y29102D02*
G01X24567Y29237D01*
G01X24567Y29242D01*
G01X25055Y29242D01*
G01X25055Y29102D01*
G01X24567Y29102D01*
G37*

%LPD*%
G54D35*
G01X13728Y26393D02*
G01X11321Y26393D01*
G01X10995Y26718D01*
G54D36*
G01X13858Y16103D02*
G01X11120Y16103D01*
G01X10983Y16240D01*
G01X11572Y17500D02*
G01X11572Y16126D01*
G01X11592Y16103D01*
G01X11572Y17500D02*
G01X10045Y17503D01*
G01X11455Y27970D02*
G01X11455Y27180D01*
G01X10995Y26718D01*
G01X11569Y7089D02*
G01X11569Y5819D01*
G01X11569Y5819D01*
G01X11569Y7089D01*
G01X11569Y7089D01*
G01X11569Y7089D02*
G01X10172Y7089D01*
G01X13731Y5562D02*
G01X11323Y5562D01*
G01X11008Y5247D01*
G01X3439Y24602D02*
G01X3439Y21823D01*
G01X3444Y21818D01*
G01X3314Y14201D02*
G01X3314Y11407D01*
G01X3317Y11404D01*
G01X3317Y11404D02*
G01X3317Y8488D01*
G01X3314Y8486D01*
G01X3314Y8486D02*
G01X3314Y5692D01*
G01X3317Y5689D01*
G54D12*
G01X21359Y22600D02*
G01X19192Y22600D01*
G01X19159Y22567D01*
G01X18798Y20436D02*
G01X18798Y22204D01*
G01X19159Y22567D01*
G01X17528Y20436D02*
G01X17528Y21429D01*
G01X17056Y21902D01*
G01X17056Y22471D01*
G01X16957Y22567D01*
G01X20068Y14391D02*
G01X20068Y12192D01*
G01X20160Y12098D01*
G01X18798Y14391D02*
G01X18798Y13243D01*
G01X18356Y12801D01*
G01X18356Y12499D01*
G01X17958Y12100D01*
G01X20160Y12098D02*
G01X22324Y12098D01*
G01X22357Y12133D01*
G01X20068Y20436D02*
G01X21221Y20436D01*
G01X21755Y19903D01*
G01X21755Y19103D01*
G01X21856Y19001D01*
G01X16258Y14391D02*
G01X16258Y15704D01*
G01X16556Y16002D01*
G01X20886Y16002D01*
G01X21856Y16969D01*
G54D14*
G01X18798Y14391D02*
G01X18798Y15298D01*
G01X18798Y14391D01*
G01X16256Y19662D02*
G01X16256Y20434D01*
G01X16258Y20436D01*
G01X17538Y19679D02*
G01X17538Y20426D01*
G01X17528Y20436D01*
G54D12*
G01X17958Y9999D02*
G01X17958Y10068D01*
G01X17958Y10068D01*
G54D15*
G01X16556Y11102D02*
G01X19123Y11102D01*
G01X20160Y10066D01*
G01X15255Y23601D02*
G01X18163Y23601D01*
G01X19159Y24599D01*
G54D11*
G01X16055Y30434D02*
G01X16055Y30573D01*
G01X16055Y30573D01*
G01X16055Y30434D01*
G01X16055Y30434D01*
G01X16055Y30434D02*
G01X16055Y30573D01*
G54D16*
G01X16055Y28402D02*
G01X18128Y28402D01*
G01X18257Y28531D01*
G01X18257Y28531D02*
G01X21626Y28531D01*
G01X21655Y28502D01*
G01X20457Y26469D02*
G01X18290Y26469D01*
G01X18257Y26499D01*
G54D15*
G01X22055Y27914D02*
G01X22055Y28102D01*
G01X21656Y28501D01*
G01X21655Y28501D01*
G01X21655Y28502D01*
G54D37*
G01X22055Y26492D02*
G01X20480Y26492D01*
G01X20457Y26469D01*
G54D12*
G01X22258Y14401D02*
G01X21958Y14401D01*
G01X21255Y15102D01*
G54D16*
G01X21856Y19001D02*
G01X23660Y19001D01*
G01X23957Y19301D01*
G01X21856Y16969D02*
G01X23022Y16969D01*
G01X23855Y17802D01*
G01X26855Y17802D01*
G54D12*
G01X24290Y14401D02*
G01X24290Y15735D01*
G01X25555Y17002D01*
G01X27356Y17002D01*
G54D16*
G01X29456Y30002D02*
G01X26360Y30002D01*
G01X26357Y29999D01*
G01X26357Y27967D02*
G01X26357Y26700D01*
G01X27655Y25402D01*
G01X29456Y25402D01*
G01X29456Y25402D01*
G54D13*
G01X22055Y26492D02*
G01X22956Y26502D01*
G54D16*
G01X22956Y26502D02*
G01X23408Y26502D01*
G01X23408Y27904D01*
G01X24254Y27901D01*
G01X26291Y27901D01*
G01X26357Y27967D01*
G54D15*
G01X22055Y27914D02*
G01X22055Y28201D01*
G01X21753Y28502D01*
G01X21655Y28502D01*
G54D17*
G01X29456Y27701D02*
G01X35755Y27701D01*
G54D16*
G01X31356Y26601D02*
G01X31356Y27655D01*
G01X31402Y27701D01*
G01X23957Y19301D02*
G01X23957Y20304D01*
G01X24455Y20802D01*
G01X27056Y20802D01*
G01X21359Y24632D02*
G01X25024Y24632D01*
G01X30556Y19103D01*
G01X32456Y19103D01*
G01X33957Y21201D02*
G01X30358Y21201D01*
G01X29456Y22103D01*
G01X29456Y25402D01*
G01X29456Y25402D01*
G01X33957Y21201D02*
G01X35156Y21201D01*
G01X37056Y19301D01*
G01X37056Y15402D01*
G01X36256Y23202D02*
G01X36355Y23202D01*
G01X38057Y21501D01*
G01X38057Y15402D01*
G01X22357Y10101D02*
G01X26355Y10101D01*
G01X31554Y15300D01*
G01X32357Y15300D01*
G01X27056Y20802D02*
G01X27556Y20802D01*
G01X30256Y18102D01*
G01X33655Y18102D01*
G01X34556Y17203D01*
G01X34556Y15303D01*
G01X26855Y17802D02*
G01X29055Y17802D01*
G01X30056Y16802D01*
G01X32855Y16802D01*
G01X33457Y16202D01*
G01X33457Y15001D01*
G01X34056Y14401D01*
G01X35156Y14401D01*
G01X35755Y15001D01*
G01X35755Y18602D01*
G01X35255Y19103D01*
G01X34455Y19103D01*
G01X37056Y15402D02*
G01X37056Y12504D01*
G01X33058Y8501D01*
G01X32057Y8501D01*
G01X38057Y15402D02*
G01X38057Y12006D01*
G01X33157Y7101D01*
G01X32057Y7101D01*
G54D12*
G01X30655Y8602D02*
G01X31956Y8602D01*
G01X32057Y8501D01*
G01X30655Y7002D02*
G01X31958Y7002D01*
G01X32057Y7101D01*
G54D16*
G01X24287Y30601D02*
G01X25758Y30601D01*
G01X26357Y29999D01*
G01X34056Y14401D02*
G01X34056Y14201D01*
G01X31958Y12105D01*
G01X31958Y9900D01*
G01X30655Y8602D02*
G01X30655Y12202D01*
G01X32156Y13703D01*
G54D12*
G01X26957Y15801D02*
G01X28356Y15801D01*
G01X28356Y15801D01*
G01X29357Y14300D02*
G01X27058Y12001D01*
G01X27058Y12001D01*
G01X16157Y5900D02*
G01X22453Y5900D01*
G01X24254Y7701D01*
G54D15*
G01X29156Y16301D02*
G01X29156Y15303D01*
G01X28854Y15001D01*
G01X27556Y15001D01*
G01X25357Y12801D01*
G54D12*
G01X38455Y11302D02*
G01X38455Y11607D01*
G01X38057Y12006D01*
G01X29055Y11302D02*
G01X29055Y5102D01*
G01X27355Y3402D01*
G01X25755Y3402D01*
G01X23687Y28502D02*
G01X23687Y28133D01*
G01X23355Y27802D01*
G54D38*
G01X10007Y358D02*
G01X29025Y358D01*
G01X30255Y1602D01*
G01X38455Y4803D02*
G01X37155Y4803D01*
G54D35*
G01X16258Y21185D02*
G01X16258Y19685D01*
G01X17528Y21185D02*
G01X17528Y19685D01*
G01X18798Y21185D02*
G01X18798Y19685D01*
G01X20068Y21185D02*
G01X20068Y19685D01*
G01X16258Y15140D02*
G01X16258Y13640D01*
G01X17528Y15140D02*
G01X17528Y13640D01*
G01X18798Y15140D02*
G01X18798Y13640D01*
G01X20068Y15140D02*
G01X20068Y13640D01*
G54D23*
G01X21656Y28503D03*
G01X23688Y28503D03*
G54D28*
G01X11455Y30002D03*
G01X11455Y27970D03*
G01X13728Y28425D03*
G01X13728Y26393D03*
G54D39*
G01X3314Y14202D03*
G01X6108Y14202D03*
G01X3439Y24601D03*
G01X6233Y24601D03*
G01X3444Y21819D03*
G01X6238Y21819D03*
G01X3317Y11405D03*
G01X6111Y11405D03*
G01X3314Y8487D03*
G01X6108Y8487D03*
G01X3317Y5690D03*
G01X6111Y5690D03*
G54D28*
G01X11572Y19532D03*
G01X11572Y17500D03*
G01X13858Y18135D03*
G01X13858Y16103D03*
G01X11569Y9121D03*
G01X11569Y7089D03*
G01X13731Y7594D03*
G01X13731Y5562D03*
G01X21359Y22600D03*
G01X21359Y24632D03*
G01X16957Y24599D03*
G01X16957Y22567D03*
G01X19159Y24599D03*
G01X19159Y22567D03*
G01X17958Y12100D03*
G01X17958Y10068D03*
G01X20160Y12098D03*
G01X20160Y10066D03*
G01X22357Y10101D03*
G01X22357Y12133D03*
G01X21856Y19001D03*
G01X21856Y16969D03*
G01X16055Y28402D03*
G01X16055Y30434D03*
G01X18257Y26499D03*
G01X18257Y28531D03*
G54D40*
G01X22053Y27915D03*
G01X22053Y26493D03*
G54D27*
G01X29455Y27701D03*
G01X29455Y30001D03*
G01X29455Y25401D03*
G54D33*
G01X35755Y27701D03*
G54D28*
G01X26357Y30001D03*
G01X26357Y27969D03*
G54D23*
G01X23957Y19301D03*
G01X25989Y19301D03*
G01X22258Y14401D03*
G01X24290Y14401D03*
G01X22255Y30600D03*
G01X24287Y30600D03*
G54D29*
G01X32057Y8500D03*
G01X32057Y7100D03*
G54D41*
G01X31657Y5201D03*
G01X33057Y5201D03*
G54D19*
G75*
G01X411Y3892D02*
G03X36Y3512I0J-375D01*
G01*

%LPD*%
G36*
G01X5092Y25504D02*
G01X5055Y20762D01*
G01X12175Y20732D01*
G01X12185Y27082D01*
G01X10716Y27082D01*
G01X9535Y27082D01*
G01X9537Y25504D01*
G01X5092Y25504D01*
G37*

%LPD*%
G36*
G01X5092Y20805D02*
G01X10426Y20805D01*
G01X10426Y10391D01*
G01X10426Y-22D01*
G01X5092Y-22D01*
G01X5092Y20805D01*
G37*

%LPD*%
G36*
G01X5219Y3914D02*
G01X5242Y-20D01*
G01X349Y-16D01*
G01X131Y387D01*
G01X12Y612D01*
G01X12Y3533D01*
G01X135Y3777D01*
G01X393Y3914D01*
G01X5219Y3914D01*
G37*

%LPD*%
G36*
G01X9410Y10264D02*
G01X9410Y11788D01*
G01X10680Y11788D01*
G01X10680Y10264D01*
G01X9410Y10264D01*
G37*

%LPD*%
G36*
G01X9410Y-22D02*
G01X9410Y6327D01*
G01X12458Y6327D01*
G01X12458Y-22D01*
G01X9410Y-22D01*
G37*

%LPD*%
G36*
G01X9410Y18011D02*
G01X9410Y10264D01*
G01X12331Y10264D01*
G01X12331Y16614D01*
G01X10426Y16614D01*
G01X10426Y18011D01*
G01X9410Y18011D01*
G37*

%LPD*%
G36*
G01X9755Y30902D02*
G01X9750Y31342D01*
G01X22805Y31332D01*
G01X22805Y30902D01*
G01X9755Y30902D01*
G37*

%LPD*%
G36*
G01X21755Y26202D02*
G01X21755Y26702D01*
G01X22355Y26702D01*
G01X22355Y26202D01*
G01X21755Y26202D01*
G37*

%LPD*%
G36*
G01X32855Y24302D02*
G01X32855Y31002D01*
G01X32855Y31322D01*
G01X39155Y31322D01*
G01X39155Y24302D01*
G01X32855Y24302D01*
G37*

%LPD*%
G36*
G01X4655Y26002D02*
G01X9055Y26002D01*
G01X9055Y27502D01*
G01X10004Y27502D01*
G01X9997Y31353D01*
G01X1804Y31353D01*
G01X407Y31353D01*
G01X169Y31224D01*
G01X26Y30972D01*
G01X26Y28432D01*
G01X169Y28179D01*
G01X407Y28051D01*
G01X4656Y28053D01*
G01X4655Y26002D01*
G37*
G54D34*
G01X-3844Y12942D03*
G01X-3844Y7862D03*
G01X-3841Y24240D03*
G01X-3841Y19160D03*
G54D16*
G01X10055Y26002D03*
G01X11007Y25958D03*
G01X10045Y26712D03*
G01X10995Y26719D03*
G01X13728Y28425D03*
G01X5418Y21069D03*
G01X5418Y21926D03*
G01X5418Y22688D03*
G01X5418Y23450D03*
G01X5418Y24212D03*
G01X6299Y21069D03*
G01X7197Y21069D03*
G01X8171Y21069D03*
G01X9070Y21069D03*
G01X9952Y21069D03*
G54D20*
G01X11455Y30002D03*
G54D16*
G01X3441Y24488D03*
G01X3441Y21694D03*
G01X650Y30074D03*
G01X647Y29314D03*
G01X638Y28562D03*
G01X1536Y30076D03*
G01X1536Y29314D03*
G01X1536Y28552D03*
G01X2428Y30074D03*
G01X2425Y29314D03*
G01X2407Y28572D03*
G01X3314Y30076D03*
G01X3314Y29314D03*
G01X3305Y28562D03*
G01X777Y2515D03*
G01X767Y1636D03*
G01X767Y747D03*
G01X1656Y2525D03*
G01X1647Y1646D03*
G01X1647Y757D03*
G01X2545Y2525D03*
G01X2536Y1646D03*
G01X2536Y757D03*
G01X3444Y2515D03*
G01X3434Y1636D03*
G01X3434Y747D03*
G01X774Y3406D03*
G01X1654Y3416D03*
G01X2543Y3416D03*
G01X3441Y3406D03*
G01X5473Y10645D03*
G01X6355Y10645D03*
G01X7253Y10645D03*
G01X8227Y10645D03*
G01X9125Y10645D03*
G01X10008Y10645D03*
G01X5476Y11405D03*
G01X5476Y12167D03*
G01X5476Y13056D03*
G01X650Y30836D03*
G01X1536Y30838D03*
G01X2425Y30838D03*
G01X3317Y30836D03*
G01X3314Y14201D03*
G01X3314Y11407D03*
G01X5473Y13820D03*
G01X5473Y358D03*
G01X6355Y358D03*
G01X7253Y358D03*
G01X8227Y358D03*
G01X9125Y358D03*
G01X10008Y358D03*
G01X5476Y1118D03*
G01X5476Y1880D03*
G01X5476Y2769D03*
G01X5473Y3533D03*
G01X3314Y8486D03*
G01X3314Y5692D03*
G01X10045Y15471D03*
G01X10995Y15478D03*
G01X10034Y16232D03*
G01X10984Y16239D03*
G01X11569Y19535D03*
G01X13855Y18138D03*
G01X10057Y5239D03*
G01X11007Y5247D03*
G01X10045Y6001D03*
G01X10995Y6008D03*
G01X13728Y7597D03*
G01X11572Y9119D03*
G01X16256Y19662D03*
G01X17537Y19680D03*
G01X18796Y15142D03*
G01X17517Y15140D03*
G01X17958Y10000D03*
G01X16556Y11102D03*
G01X15256Y23602D03*
G01X16957Y24600D03*
G01X26055Y19302D03*
G01X21256Y15102D03*
G01X27355Y17002D03*
G01X23956Y19002D03*
G01X21657Y28500D03*
G01X26357Y28000D03*
G01X31355Y26602D03*
G01X36255Y23202D03*
G01X34455Y19102D03*
G01X34555Y15302D03*
G01X32455Y19102D03*
G01X33957Y21200D03*
G01X32357Y15300D03*
G01X4256Y7002D03*
G01X3556Y7002D03*
G01X2856Y7002D03*
G01X2155Y7002D03*
G01X4258Y17600D03*
G01X3558Y17600D03*
G01X2858Y17600D03*
G01X2158Y17600D03*
G01X4256Y16802D03*
G01X3556Y16802D03*
G01X2856Y16802D03*
G01X2155Y16802D03*
G01X4258Y16000D03*
G01X3558Y16000D03*
G01X2858Y16000D03*
G01X2158Y16000D03*
G54D21*
G01X30655Y8602D03*
G01X30655Y7002D03*
G01X31958Y9900D03*
G01X32155Y13702D03*
G01X33055Y5202D03*
G01X27057Y12000D03*
G54D16*
G01X26958Y15800D03*
G01X28357Y15800D03*
G54D21*
G01X29357Y14300D03*
G01X16157Y5900D03*
G01X24256Y7702D03*
G01X29155Y16302D03*
G01X25355Y12802D03*
G54D17*
G01X38455Y11302D03*
G01X38455Y10002D03*
G01X38455Y8702D03*
G01X38455Y7402D03*
G01X38455Y6102D03*
G01X38455Y4802D03*
G01X38455Y3502D03*
G01X38455Y2202D03*
G01X38455Y902D03*
G54D21*
G01X30256Y1602D03*
G01X29055Y11302D03*
G01X25755Y3402D03*
G01X27055Y7802D03*
M00*
M02*
