G04 Layer: TopSolderMaskLayer*
G04 EasyEDA v5.9.41, Mon, 04 Feb 2019 09:10:30 GMT*
G04 f7da754788ad4d128d84d1fb51d08027*
G04 Gerber Generator version 0.2*
G04 Scale: 100 percent, Rotated: No, Reflected: No *
G04 Dimensions in millimeters *
G04 leading zeros omitted , absolute positions ,3 integer and 3 decimal *
%FSLAX33Y33*%
%MOMM*%
G90*
G71D02*

%ADD49R,1.803400X3.703320*%
%ADD50R,1.363218X1.673098*%
%ADD51R,0.453212X0.903224*%
%ADD52R,0.903224X0.453212*%
%ADD53R,4.603191X2.603246*%
%ADD54R,2.203196X1.703197*%
%ADD55R,1.673098X1.363218*%
%ADD56R,1.303198X1.203198*%
%ADD57R,1.503680X1.602740*%
%ADD58R,1.203198X1.203198*%
%ADD59R,1.696720X0.603199*%
%ADD60C,1.727200*%
%ADD61R,2.203196X4.003192*%

%LPD*%
G54D49*
G01X14965Y12296D03*
G01X20366Y12296D03*
G01X14965Y22710D03*
G01X20366Y22710D03*
G54D50*
G01X10005Y29651D03*
G01X7973Y29651D03*
G54D51*
G01X7105Y21940D03*
G01X7608Y21944D03*
G01X8105Y21946D03*
G01X8589Y21940D03*
G01X9084Y21943D03*
G01X9572Y21936D03*
G01X10068Y21939D03*
G01X10552Y21932D03*
G01X11065Y21927D03*
G01X11571Y21932D03*
G01X7107Y27804D03*
G01X7610Y27809D03*
G01X8106Y27811D03*
G01X8590Y27805D03*
G01X9085Y27806D03*
G01X9573Y27801D03*
G01X10070Y27804D03*
G01X10553Y27797D03*
G01X11068Y27791D03*
G01X11571Y27797D03*
G54D52*
G01X12255Y26606D03*
G01X12257Y27092D03*
G01X12254Y25623D03*
G01X12255Y26109D03*
G01X12259Y24630D03*
G01X12260Y25116D03*
G01X12258Y23647D03*
G01X12259Y24135D03*
G01X12259Y22646D03*
G01X12260Y23134D03*
G01X6416Y26600D03*
G01X6418Y27086D03*
G01X6415Y25617D03*
G01X6416Y26103D03*
G01X6420Y24624D03*
G01X6421Y25110D03*
G01X6418Y23642D03*
G01X6421Y24127D03*
G01X6422Y22641D03*
G01X6422Y23126D03*
G54D53*
G01X9322Y23884D03*
G54D54*
G01X8135Y26334D03*
G01X10532Y26335D03*
G54D55*
G01X24254Y7701D03*
G01X24254Y5669D03*
G54D50*
G01X10045Y19232D03*
G01X8013Y19232D03*
G54D51*
G01X7123Y11518D03*
G01X7626Y11522D03*
G01X8123Y11525D03*
G01X8607Y11518D03*
G01X9103Y11521D03*
G01X9591Y11515D03*
G01X10086Y11517D03*
G01X10570Y11511D03*
G01X11083Y11506D03*
G01X11589Y11511D03*
G01X7124Y17382D03*
G01X7627Y17387D03*
G01X8124Y17390D03*
G01X8608Y17383D03*
G01X9104Y17385D03*
G01X9591Y17379D03*
G01X10087Y17382D03*
G01X10571Y17376D03*
G01X11086Y17369D03*
G01X11589Y17376D03*
G54D52*
G01X12273Y16184D03*
G01X12276Y16671D03*
G01X12272Y15201D03*
G01X12273Y15688D03*
G01X12277Y14208D03*
G01X12278Y14695D03*
G01X12276Y13225D03*
G01X12278Y13713D03*
G01X12279Y12225D03*
G01X12279Y12712D03*
G01X6434Y16178D03*
G01X6436Y16664D03*
G01X6432Y15195D03*
G01X6435Y15681D03*
G01X6437Y14202D03*
G01X6440Y14688D03*
G01X6436Y13220D03*
G01X6439Y13705D03*
G01X6440Y12219D03*
G01X6440Y12705D03*
G54D53*
G01X9339Y13463D03*
G54D54*
G01X8154Y15913D03*
G01X10550Y15914D03*
G54D50*
G01X10048Y8864D03*
G01X8016Y8864D03*
G54D51*
G01X7123Y1231D03*
G01X7626Y1235D03*
G01X8123Y1238D03*
G01X8607Y1231D03*
G01X9103Y1234D03*
G01X9591Y1228D03*
G01X10086Y1230D03*
G01X10570Y1224D03*
G01X11083Y1219D03*
G01X11589Y1224D03*
G01X7124Y7095D03*
G01X7627Y7100D03*
G01X8124Y7103D03*
G01X8608Y7096D03*
G01X9104Y7098D03*
G01X9591Y7092D03*
G01X10087Y7095D03*
G01X10571Y7089D03*
G01X11086Y7082D03*
G01X11589Y7089D03*
G54D52*
G01X12273Y5897D03*
G01X12276Y6384D03*
G01X12272Y4914D03*
G01X12273Y5401D03*
G01X12277Y3921D03*
G01X12278Y4408D03*
G01X12276Y2938D03*
G01X12278Y3426D03*
G01X12279Y1938D03*
G01X12279Y2425D03*
G01X6434Y5891D03*
G01X6436Y6377D03*
G01X6432Y4908D03*
G01X6435Y5394D03*
G01X6437Y3915D03*
G01X6440Y4401D03*
G01X6436Y2933D03*
G01X6439Y3418D03*
G01X6440Y1932D03*
G01X6440Y2418D03*
G54D53*
G01X9339Y3176D03*
G54D54*
G01X8154Y5626D03*
G01X10550Y5627D03*
G54D50*
G01X34455Y19103D03*
G01X32423Y19103D03*
G01X34455Y16802D03*
G01X32423Y16802D03*
G54D55*
G01X36258Y23200D03*
G01X36258Y21168D03*
G54D56*
G01X38156Y19302D03*
G01X38156Y17903D03*
G01X36352Y19302D03*
G01X36352Y17903D03*
G54D55*
G01X25758Y1400D03*
G01X25758Y3432D03*
G54D57*
G01X28122Y1600D03*
G01X30222Y1600D03*
G54D58*
G01X22237Y22710D03*
G01X22491Y12296D03*
G01X22237Y2009D03*
G01X1458Y29700D03*
G01X1656Y2103D03*
G54D50*
G01X18758Y15400D03*
G01X16726Y15400D03*
G54D59*
G01X34856Y7400D03*
G01X34856Y8049D03*
G01X34856Y8700D03*
G01X34856Y9351D03*
G01X28859Y5450D03*
G01X34856Y5450D03*
G01X34856Y6101D03*
G01X34856Y6751D03*
G01X28854Y10001D03*
G01X28854Y9351D03*
G01X28854Y8700D03*
G01X28854Y8050D03*
G01X28854Y7400D03*
G01X28854Y6751D03*
G01X34856Y10001D03*
G01X28859Y6101D03*
G01X34856Y4800D03*
G01X34856Y10650D03*
G01X28854Y10650D03*
G01X28854Y4800D03*
G54D50*
G01X21557Y18801D03*
G01X19525Y18801D03*
G54D60*
G01X-3844Y12942D03*
G01X-3844Y7862D03*
G01X-3841Y24240D03*
G01X-3841Y19160D03*
G54D50*
G01X17556Y19502D03*
G01X15524Y19502D03*
G54D61*
G01X35755Y27701D03*
G54D54*
G01X29455Y27701D03*
G01X29455Y25401D03*
G01X29455Y30001D03*
G54D55*
G01X33957Y23200D03*
G01X33957Y21168D03*
G01X31657Y23200D03*
G01X31657Y21168D03*
G54D50*
G01X23955Y17401D03*
G01X25987Y17401D03*
G54D58*
G01X38457Y900D03*
G01X38455Y3502D03*
G01X38457Y10000D03*
G01X38457Y7400D03*
G01X38457Y6100D03*
G01X38458Y11300D03*
G01X38455Y4802D03*
G01X38457Y8700D03*
G01X38457Y2200D03*

%LPD*%
G36*
G01X20459Y20678D02*
G01X20459Y24996D01*
G01X24015Y24996D01*
G01X24015Y20678D01*
G01X20459Y20678D01*
G37*

%LPD*%
G36*
G01X393Y358D02*
G01X393Y3787D01*
G01X3956Y3802D01*
G01X3956Y302D01*
G01X393Y358D01*
G37*

%LPD*%
G36*
G01X55Y28102D02*
G01X55Y31302D01*
G01X4055Y31302D01*
G01X4055Y28102D01*
G01X55Y28102D01*
G37*

%LPD*%
G36*
G01X20461Y10135D02*
G01X20461Y13691D01*
G01X20461Y14453D01*
G01X24017Y14453D01*
G01X24017Y10135D01*
G01X20461Y10135D01*
G37*

%LPD*%
G36*
G01X20459Y-22D02*
G01X20459Y3533D01*
G01X20459Y4295D01*
G01X24015Y4295D01*
G01X24015Y-22D01*
G01X20459Y-22D01*
G37*

%LPD*%
G36*
G01X55Y2D02*
G01X55Y3902D01*
G01X3956Y3902D01*
G01X3956Y2D01*
G01X55Y2D01*
G37*

%LPD*%
G36*
G01X1856Y27802D02*
G01X1856Y26402D01*
G01X5355Y26402D01*
G01X5355Y27802D01*
G01X1856Y27802D01*
G37*

%LPD*%
G36*
G01X1655Y13802D02*
G01X1655Y12402D01*
G01X4556Y12402D01*
G01X4556Y13802D01*
G01X1655Y13802D01*
G37*
M00*
M02*
