;Layer: Drill PTH
;EasyEDA v5.9.41, Mon, 04 Feb 2019 09:10:30 GMT
;f7da754788ad4d128d84d1fb51d08027
;Gerber Generator version 0.2
M48
METRIC,LZ,000.000
;Holesize 1 = 0.305 METRIC
T01C0.305
;Holesize 2 = 0.400 METRIC
T02C0.400
;Holesize 3 = 0.701 METRIC
T03C0.701
;Holesize 4 = 0.915 METRIC
T04C0.915
%
G05
G90
T01
X+010055Y+026002
X+011007Y+025958
X+010045Y+026712
X+010995Y+026719
X+013728Y+028425
X+005418Y+021069
X+005418Y+021926
X+005418Y+022688
X+005418Y+023450
X+005418Y+024212
X+006299Y+021069
X+007197Y+021069
X+008171Y+021069
X+009070Y+021069
X+009952Y+021069
X+003441Y+024488
X+003441Y+021694
X+000650Y+030074
X+000647Y+029314
X+000638Y+028562
X+001536Y+030076
X+001536Y+029314
X+001536Y+028552
X+002428Y+030074
X+002425Y+029314
X+002407Y+028572
X+003314Y+030076
X+003314Y+029314
X+003305Y+028562
X+000777Y+002515
X+000767Y+001636
X+000767Y+000747
X+001656Y+002525
X+001647Y+001646
X+001647Y+000757
X+002545Y+002525
X+002536Y+001646
X+002536Y+000757
X+003444Y+002515
X+003434Y+001636
X+003434Y+000747
X+000774Y+003406
X+001654Y+003416
X+002543Y+003416
X+003441Y+003406
X+005473Y+010645
X+006355Y+010645
X+007253Y+010645
X+008227Y+010645
X+009125Y+010645
X+010008Y+010645
X+005476Y+011405
X+005476Y+012167
X+005476Y+013056
X+000650Y+030836
X+001536Y+030838
X+002425Y+030838
X+003317Y+030836
X+003314Y+014201
X+003314Y+011407
X+005473Y+013820
X+005473Y+000358
X+006355Y+000358
X+007253Y+000358
X+008227Y+000358
X+009125Y+000358
X+010008Y+000358
X+005476Y+001118
X+005476Y+001880
X+005476Y+002769
X+005473Y+003533
X+003314Y+008486
X+003314Y+005692
X+010045Y+015471
X+010995Y+015478
X+010034Y+016232
X+010984Y+016239
X+011569Y+019535
X+013855Y+018138
X+010057Y+005239
X+011007Y+005247
X+010045Y+006001
X+010995Y+006008
X+013728Y+007597
X+011572Y+009119
X+016256Y+019662
X+017537Y+019680
X+018796Y+015142
X+017517Y+015140
X+017958Y+010000
X+016556Y+011102
X+015256Y+023602
X+016957Y+024600
X+026055Y+019302
X+021256Y+015102
X+027355Y+017002
X+023956Y+019002
X+021657Y+028500
X+026357Y+028000
X+031355Y+026602
X+036255Y+023202
X+034455Y+019102
X+034555Y+015302
X+032455Y+019102
X+033957Y+021200
X+032357Y+015300
X+004256Y+007002
X+003556Y+007002
X+002856Y+007002
X+002155Y+007002
X+004258Y+017600
X+003558Y+017600
X+002858Y+017600
X+002158Y+017600
X+004256Y+016802
X+003556Y+016802
X+002856Y+016802
X+002155Y+016802
X+004258Y+016000
X+003558Y+016000
X+002858Y+016000
X+002158Y+016000
X+030655Y+008602
X+030655Y+007002
X+031958Y+009900
X+032155Y+013702
X+033055Y+005202
X+027057Y+012000
X+026958Y+015800
X+028357Y+015800
X+029357Y+014300
X+016157Y+005900
X+024256Y+007702
X+029155Y+016302
X+025355Y+012802
X+030256Y+001602
X+029055Y+011302
X+025755Y+003402
X+027055Y+007802
T02
X+011455Y+030002
T03
X+038455Y+011302
X+038455Y+010002
X+038455Y+008702
X+038455Y+007402
X+038455Y+006102
X+038455Y+004802
X+038455Y+003502
X+038455Y+002202
X+038455Y+000902
T04
X-003844Y+012942
X-003844Y+007862
X-003841Y+024240
X-003841Y+019160
M30
